<mxfile host="Electron" modified="2024-05-10T16:41:35.621Z" agent="Mozilla/5.0 (Windows NT 10.0; Win64; x64) AppleWebKit/537.36 (KHTML, like Gecko) draw.io/24.2.5 Chrome/120.0.6099.109 Electron/28.1.0 Safari/537.36" etag="kEX4e9J1jchyYmUlIRmW" version="24.2.5" type="device">
  <diagram name="Seite-1" id="KjgPlh1pukb7jeF0v1lw">
    <mxGraphModel dx="2440" dy="1407" grid="1" gridSize="10" guides="1" tooltips="1" connect="1" arrows="1" fold="1" page="1" pageScale="1" pageWidth="827" pageHeight="1169" math="0" shadow="0">
      <root>
        <mxCell id="0" />
        <mxCell id="1" parent="0" />
        <mxCell id="V1K6mKNlN0L5zjNNiTrv-2" value="" style="shape=image;verticalLabelPosition=bottom;labelBackgroundColor=default;verticalAlign=top;aspect=fixed;imageAspect=0;image=data:image/svg+xml,PHN2ZyB4bWxucz0iaHR0cDovL3d3dy53My5vcmcvMjAwMC9zdmciIHhtbG5zOnhsaW5rPSJodHRwOi8vd3d3LnczLm9yZy8xOTk5L3hsaW5rIiB2ZXJzaW9uPSIxLjEiIHZpZXdCb3g9IjAgMCA4NzkuMTIgNTQ5LjM2IiBoZWlnaHQ9IjU0OS4zNnB0IiB3aWR0aD0iODc5LjEycHQiPiYjeGE7IDxtZXRhZGF0YT4mI3hhOyAgJiN4YTsgICAmI3hhOyAgICAmI3hhOyAgICAyMDI0LTA1LTEwVDE4OjQxOjEzLjMzNjg0MiYjeGE7ICAgIGltYWdlL3N2Zyt4bWwmI3hhOyAgICAmI3hhOyAgICAgJiN4YTsgICAgICBNYXRwbG90bGliIHYzLjguNCwgaHR0cHM6Ly9tYXRwbG90bGliLm9yZy8mI3hhOyAgICAgJiN4YTsgICAgJiN4YTsgICAmI3hhOyAgJiN4YTsgPC9tZXRhZGF0YT4mI3hhOyA8ZGVmcz4mI3hhOyAgPHN0eWxlIHR5cGU9InRleHQvY3NzIj4qe3N0cm9rZS1saW5lam9pbjogcm91bmQ7IHN0cm9rZS1saW5lY2FwOiBidXR0fTwvc3R5bGU+JiN4YTsgPC9kZWZzPiYjeGE7IDxnIGlkPSJmaWd1cmVfMSI+JiN4YTsgIDxnIGlkPSJwYXRjaF8xIj4mI3hhOyAgIDxwYXRoIHN0eWxlPSJmaWxsOiAjZmZmZmZmIiBkPSJNIDAgNTQ5LjM2ICYjMTA7TCA4NzkuMTIgNTQ5LjM2ICYjMTA7TCA4NzkuMTIgMCAmIzEwO0wgMCAwICYjMTA7eiIvPiYjeGE7ICA8L2c+JiN4YTsgIDxnIGlkPSJheGVzXzEiPiYjeGE7ICAgPGcgaWQ9InBhdGNoXzIiPiYjeGE7ICAgIDxwYXRoIHN0eWxlPSJmaWxsOiAjZmZmZmZmIiBkPSJNIDY2Ljg5IDUwMy4wOCAmIzEwO0wgODY4LjMyIDUwMy4wOCAmIzEwO0wgODY4LjMyIDEwLjggJiMxMDtMIDY2Ljg5IDEwLjggJiMxMDt6Ii8+JiN4YTsgICA8L2c+JiN4YTsgICA8ZyBpZD0iUGF0aENvbGxlY3Rpb25fMSI+JiN4YTsgICAgPGRlZnM+JiN4YTsgICAgIDxwYXRoIHN0eWxlPSJzdHJva2U6ICM0NDAxNTQiIGQ9Ik0gMCAzICYjMTA7QyAwLjc5NTYwOSAzIDEuNTU4NzQgMi42ODM5MDEgMi4xMjEzMiAyLjEyMTMyICYjMTA7QyAyLjY4MzkwMSAxLjU1ODc0IDMgMC43OTU2MDkgMyAwICYjMTA7QyAzIC0wLjc5NTYwOSAyLjY4MzkwMSAtMS41NTg3NCAyLjEyMTMyIC0yLjEyMTMyICYjMTA7QyAxLjU1ODc0IC0yLjY4MzkwMSAwLjc5NTYwOSAtMyAwIC0zICYjMTA7QyAtMC43OTU2MDkgLTMgLTEuNTU4NzQgLTIuNjgzOTAxIC0yLjEyMTMyIC0yLjEyMTMyICYjMTA7QyAtMi42ODM5MDEgLTEuNTU4NzQgLTMgLTAuNzk1NjA5IC0zIDAgJiMxMDtDIC0zIDAuNzk1NjA5IC0yLjY4MzkwMSAxLjU1ODc0IC0yLjEyMTMyIDIuMTIxMzIgJiMxMDtDIC0xLjU1ODc0IDIuNjgzOTAxIC0wLjc5NTYwOSAzIDAgMyAmIzEwO3oiIGlkPSJtOTkwYzk2ZTE4ZiIvPiYjeGE7ICAgIDwvZGVmcz4mI3hhOyAgICA8ZyBjbGlwLXBhdGg9InVybCgjcDMzYTg0MTQ5MjIpIj4mI3hhOyAgICAgPHVzZSBzdHlsZT0iZmlsbDogIzQ0MDE1NDsgc3Ryb2tlOiAjNDQwMTU0IiB5PSIzMTguMzEzNDM1IiB4PSIxMDMuMzE4NjM2IiB4bGluazpocmVmPSIjbTk5MGM5NmUxOGYiLz4mI3hhOyAgICAgPHVzZSBzdHlsZT0iZmlsbDogIzQ0MDE1NDsgc3Ryb2tlOiAjNDQwMTU0IiB5PSIzMTEuNDYwMzgxIiB4PSIyMjAuODMwMzY3IiB4bGluazpocmVmPSIjbTk5MGM5NmUxOGYiLz4mI3hhOyAgICAgPHVzZSBzdHlsZT0iZmlsbDogIzQ0MDE1NDsgc3Ryb2tlOiAjNDQwMTU0IiB5PSIzMTkuNzE5NDkyIiB4PSIzMzguMzQyMDk3IiB4bGluazpocmVmPSIjbTk5MGM5NmUxOGYiLz4mI3hhOyAgICAgPHVzZSBzdHlsZT0iZmlsbDogIzQ0MDE1NDsgc3Ryb2tlOiAjNDQwMTU0IiB5PSIzMjIuNDAxNzMiIHg9IjQ1NS44NTM4MjciIHhsaW5rOmhyZWY9IiNtOTkwYzk2ZTE4ZiIvPiYjeGE7ICAgICA8dXNlIHN0eWxlPSJmaWxsOiAjNDQwMTU0OyBzdHJva2U6ICM0NDAxNTQiIHk9IjMxOS4xNDk1NiIgeD0iNTczLjM2NTU1NyIgeGxpbms6aHJlZj0iI205OTBjOTZlMThmIi8+JiN4YTsgICAgIDx1c2Ugc3R5bGU9ImZpbGw6ICM0NDAxNTQ7IHN0cm9rZTogIzQ0MDE1NCIgeT0iMjgxLjM0MTIzNSIgeD0iNjkwLjg3NzI4NyIgeGxpbms6aHJlZj0iI205OTBjOTZlMThmIi8+JiN4YTsgICAgIDx1c2Ugc3R5bGU9ImZpbGw6ICM0NDAxNTQ7IHN0cm9rZTogIzQ0MDE1NCIgeT0iMzEwLjkwNDg5OSIgeD0iODA4LjM4OTAxOCIgeGxpbms6aHJlZj0iI205OTBjOTZlMThmIi8+JiN4YTsgICAgPC9nPiYjeGE7ICAgPC9nPiYjeGE7ICAgPGcgaWQ9IlBhdGhDb2xsZWN0aW9uXzIiPiYjeGE7ICAgIDxkZWZzPiYjeGE7ICAgICA8cGF0aCBzdHlsZT0ic3Ryb2tlOiAjMjE5MThjIiBkPSJNIDAgMyAmIzEwO0MgMC43OTU2MDkgMyAxLjU1ODc0IDIuNjgzOTAxIDIuMTIxMzIgMi4xMjEzMiAmIzEwO0MgMi42ODM5MDEgMS41NTg3NCAzIDAuNzk1NjA5IDMgMCAmIzEwO0MgMyAtMC43OTU2MDkgMi42ODM5MDEgLTEuNTU4NzQgMi4xMjEzMiAtMi4xMjEzMiAmIzEwO0MgMS41NTg3NCAtMi42ODM5MDEgMC43OTU2MDkgLTMgMCAtMyAmIzEwO0MgLTAuNzk1NjA5IC0zIC0xLjU1ODc0IC0yLjY4MzkwMSAtMi4xMjEzMiAtMi4xMjEzMiAmIzEwO0MgLTIuNjgzOTAxIC0xLjU1ODc0IC0zIC0wLjc5NTYwOSAtMyAwICYjMTA7QyAtMyAwLjc5NTYwOSAtMi42ODM5MDEgMS41NTg3NCAtMi4xMjEzMiAyLjEyMTMyICYjMTA7QyAtMS41NTg3NCAyLjY4MzkwMSAtMC43OTU2MDkgMyAwIDMgJiMxMDt6IiBpZD0ibTZkYzdiMWMxNTAiLz4mI3hhOyAgICA8L2RlZnM+JiN4YTsgICAgPGcgY2xpcC1wYXRoPSJ1cmwoI3AzM2E4NDE0OTIyKSI+JiN4YTsgICAgIDx1c2Ugc3R5bGU9ImZpbGw6ICMyMTkxOGM7IHN0cm9rZTogIzIxOTE4YyIgeT0iMzA2LjY0NDI3IiB4PSIxMjYuODIwOTgyIiB4bGluazpocmVmPSIjbTZkYzdiMWMxNTAiLz4mI3hhOyAgICAgPHVzZSBzdHlsZT0iZmlsbDogIzIxOTE4Yzsgc3Ryb2tlOiAjMjE5MThjIiB5PSIzMDAuMjAxMDU1IiB4PSIyNDQuMzMyNzEzIiB4bGluazpocmVmPSIjbTZkYzdiMWMxNTAiLz4mI3hhOyAgICAgPHVzZSBzdHlsZT0iZmlsbDogIzIxOTE4Yzsgc3Ryb2tlOiAjMjE5MThjIiB5PSIzMDUuMDU3ODU3IiB4PSIzNjEuODQ0NDQzIiB4bGluazpocmVmPSIjbTZkYzdiMWMxNTAiLz4mI3hhOyAgICAgPHVzZSBzdHlsZT0iZmlsbDogIzIxOTE4Yzsgc3Ryb2tlOiAjMjE5MThjIiB5PSIzMDIuOTA0MDU2IiB4PSI0NzkuMzU2MTczIiB4bGluazpocmVmPSIjbTZkYzdiMWMxNTAiLz4mI3hhOyAgICAgPHVzZSBzdHlsZT0iZmlsbDogIzIxOTE4Yzsgc3Ryb2tlOiAjMjE5MThjIiB5PSIyOTMuNzg1NjM2IiB4PSI1OTYuODY3OTAzIiB4bGluazpocmVmPSIjbTZkYzdiMWMxNTAiLz4mI3hhOyAgICAgPHVzZSBzdHlsZT0iZmlsbDogIzIxOTE4Yzsgc3Ryb2tlOiAjMjE5MThjIiB5PSIyNDYuMzU4MTEzIiB4PSI3MTQuMzc5NjMzIiB4bGluazpocmVmPSIjbTZkYzdiMWMxNTAiLz4mI3hhOyAgICAgPHVzZSBzdHlsZT0iZmlsbDogIzIxOTE4Yzsgc3Ryb2tlOiAjMjE5MThjIiB5PSIyNDkuMzg3NTE3IiB4PSI4MzEuODkxMzY0IiB4bGluazpocmVmPSIjbTZkYzdiMWMxNTAiLz4mI3hhOyAgICA8L2c+JiN4YTsgICA8L2c+JiN4YTsgICA8ZyBpZD0ibWF0cGxvdGxpYi5heGlzXzEiPiYjeGE7ICAgIDxnIGlkPSJ4dGlja18xIj4mI3hhOyAgICAgPGcgaWQ9ImxpbmUyZF8xIj4mI3hhOyAgICAgIDxkZWZzPiYjeGE7ICAgICAgIDxwYXRoIHN0eWxlPSJzdHJva2U6ICMwMDAwMDA7IHN0cm9rZS13aWR0aDogMC44IiBkPSJNIDAgMCAmIzEwO0wgMCAzLjUiIGlkPSJtMTNmMGMxMDExNCIvPiYjeGE7ICAgICAgPC9kZWZzPiYjeGE7ICAgICAgPGc+JiN4YTsgICAgICAgPHVzZSBzdHlsZT0ic3Ryb2tlOiAjMDAwMDAwOyBzdHJva2Utd2lkdGg6IDAuOCIgeT0iNTAzLjA4IiB4PSIxMTUuMDY5ODA5IiB4bGluazpocmVmPSIjbTEzZjBjMTAxMTQiLz4mI3hhOyAgICAgIDwvZz4mI3hhOyAgICAgPC9nPiYjeGE7ICAgICA8ZyBpZD0idGV4dF8xIj4mI3hhOyAgICAgICYjeGE7ICAgICAgPGcgdHJhbnNmb3JtPSJ0cmFuc2xhdGUoMTA3LjExODI0NyA1MTcuNjc4NDM3KSBzY2FsZSgwLjEgLTAuMSkiPiYjeGE7ICAgICAgIDxkZWZzPiYjeGE7ICAgICAgICA8cGF0aCB0cmFuc2Zvcm09InNjYWxlKDAuMDE1NjI1KSIgZD0iTSAxMjI4IDUzMSAmIzEwO0wgMzQzMSA1MzEgJiMxMDtMIDM0MzEgMCAmIzEwO0wgNDY5IDAgJiMxMDtMIDQ2OSA1MzEgJiMxMDtRIDgyOCA5MDMgMTQ0OCAxNTI5ICYjMTA7USAyMDY5IDIxNTYgMjIyOCAyMzM4ICYjMTA7USAyNTMxIDI2NzggMjY1MSAyOTE0ICYjMTA7USAyNzcyIDMxNTAgMjc3MiAzMzc4ICYjMTA7USAyNzcyIDM3NTAgMjUxMSAzOTg0ICYjMTA7USAyMjUwIDQyMTkgMTgzMSA0MjE5ICYjMTA7USAxNTM0IDQyMTkgMTIwNCA0MTE2ICYjMTA7USA4NzUgNDAxMyA1MDAgMzgwMyAmIzEwO0wgNTAwIDQ0NDEgJiMxMDtRIDg4MSA0NTk0IDEyMTIgNDY3MiAmIzEwO1EgMTU0NCA0NzUwIDE4MTkgNDc1MCAmIzEwO1EgMjU0NCA0NzUwIDI5NzUgNDM4NyAmIzEwO1EgMzQwNiA0MDI1IDM0MDYgMzQxOSAmIzEwO1EgMzQwNiAzMTMxIDMyOTggMjg3MyAmIzEwO1EgMzE5MSAyNjE2IDI5MDYgMjI2NiAmIzEwO1EgMjgyOCAyMTc1IDI0MDkgMTc0MiAmIzEwO1EgMTk5MSAxMzA5IDEyMjggNTMxICYjMTA7eiIgaWQ9IkRlamFWdVNhbnMtMzIiLz4mI3hhOyAgICAgICAgPHBhdGggdHJhbnNmb3JtPSJzY2FsZSgwLjAxNTYyNSkiIGQ9Ik0gNjg0IDc5NCAmIzEwO0wgMTM0NCA3OTQgJiMxMDtMIDEzNDQgMCAmIzEwO0wgNjg0IDAgJiMxMDtMIDY4NCA3OTQgJiMxMDt6IiBpZD0iRGVqYVZ1U2Fucy0yZSIvPiYjeGE7ICAgICAgICA8cGF0aCB0cmFuc2Zvcm09InNjYWxlKDAuMDE1NjI1KSIgZD0iTSAyMDM0IDQyNTAgJiMxMDtRIDE1NDcgNDI1MCAxMzAxIDM3NzAgJiMxMDtRIDEwNTYgMzI5MSAxMDU2IDIzMjggJiMxMDtRIDEwNTYgMTM2OSAxMzAxIDg4OSAmIzEwO1EgMTU0NyA0MDkgMjAzNCA0MDkgJiMxMDtRIDI1MjUgNDA5IDI3NzAgODg5ICYjMTA7USAzMDE2IDEzNjkgMzAxNiAyMzI4ICYjMTA7USAzMDE2IDMyOTEgMjc3MCAzNzcwICYjMTA7USAyNTI1IDQyNTAgMjAzNCA0MjUwICYjMTA7eiYjMTA7TSAyMDM0IDQ3NTAgJiMxMDtRIDI4MTkgNDc1MCAzMjMzIDQxMjkgJiMxMDtRIDM2NDcgMzUwOSAzNjQ3IDIzMjggJiMxMDtRIDM2NDcgMTE1MCAzMjMzIDUyOSAmIzEwO1EgMjgxOSAtOTEgMjAzNCAtOTEgJiMxMDtRIDEyNTAgLTkxIDgzNiA1MjkgJiMxMDtRIDQyMiAxMTUwIDQyMiAyMzI4ICYjMTA7USA0MjIgMzUwOSA4MzYgNDEyOSAmIzEwO1EgMTI1MCA0NzUwIDIwMzQgNDc1MCAmIzEwO3oiIGlkPSJEZWphVnVTYW5zLTMwIi8+JiN4YTsgICAgICAgPC9kZWZzPiYjeGE7ICAgICAgIDx1c2UgeGxpbms6aHJlZj0iI0RlamFWdVNhbnMtMzIiLz4mI3hhOyAgICAgICA8dXNlIHg9IjYzLjYyMzA0NyIgeGxpbms6aHJlZj0iI0RlamFWdVNhbnMtMmUiLz4mI3hhOyAgICAgICA8dXNlIHg9Ijk1LjQxMDE1NiIgeGxpbms6aHJlZj0iI0RlamFWdVNhbnMtMzAiLz4mI3hhOyAgICAgIDwvZz4mI3hhOyAgICAgPC9nPiYjeGE7ICAgIDwvZz4mI3hhOyAgICA8ZyBpZD0ieHRpY2tfMiI+JiN4YTsgICAgIDxnIGlkPSJsaW5lMmRfMiI+JiN4YTsgICAgICA8Zz4mI3hhOyAgICAgICA8dXNlIHN0eWxlPSJzdHJva2U6ICMwMDAwMDA7IHN0cm9rZS13aWR0aDogMC44IiB5PSI1MDMuMDgiIHg9IjIzMi41ODE1NCIgeGxpbms6aHJlZj0iI20xM2YwYzEwMTE0Ii8+JiN4YTsgICAgICA8L2c+JiN4YTsgICAgIDwvZz4mI3hhOyAgICAgPGcgaWQ9InRleHRfMiI+JiN4YTsgICAgICAmI3hhOyAgICAgIDxnIHRyYW5zZm9ybT0idHJhbnNsYXRlKDIyNC42Mjk5NzcgNTE3LjY3ODQzNykgc2NhbGUoMC4xIC0wLjEpIj4mI3hhOyAgICAgICA8ZGVmcz4mI3hhOyAgICAgICAgPHBhdGggdHJhbnNmb3JtPSJzY2FsZSgwLjAxNTYyNSkiIGQ9Ik0gNjkxIDQ2NjYgJiMxMDtMIDMxNjkgNDY2NiAmIzEwO0wgMzE2OSA0MTM0ICYjMTA7TCAxMjY5IDQxMzQgJiMxMDtMIDEyNjkgMjk5MSAmIzEwO1EgMTQwNiAzMDM4IDE1NDMgMzA2MSAmIzEwO1EgMTY4MSAzMDg0IDE4MTkgMzA4NCAmIzEwO1EgMjYwMCAzMDg0IDMwNTYgMjY1NiAmIzEwO1EgMzUxMyAyMjI4IDM1MTMgMTQ5NyAmIzEwO1EgMzUxMyA3NDQgMzA0NCAzMjYgJiMxMDtRIDI1NzUgLTkxIDE3MjIgLTkxICYjMTA7USAxNDI4IC05MSAxMTIzIC00MSAmIzEwO1EgODE5IDkgNDk0IDEwOSAmIzEwO0wgNDk0IDc0NCAmIzEwO1EgNzc1IDU5MSAxMDc1IDUxNiAmIzEwO1EgMTM3NSA0NDEgMTcwOSA0NDEgJiMxMDtRIDIyNTAgNDQxIDI1NjUgNzI1ICYjMTA7USAyODgxIDEwMDkgMjg4MSAxNDk3ICYjMTA7USAyODgxIDE5ODQgMjU2NSAyMjY4ICYjMTA7USAyMjUwIDI1NTMgMTcwOSAyNTUzICYjMTA7USAxNDU2IDI1NTMgMTIwNCAyNDk3ICYjMTA7USA5NTMgMjQ0MSA2OTEgMjMyMiAmIzEwO0wgNjkxIDQ2NjYgJiMxMDt6IiBpZD0iRGVqYVZ1U2Fucy0zNSIvPiYjeGE7ICAgICAgIDwvZGVmcz4mI3hhOyAgICAgICA8dXNlIHhsaW5rOmhyZWY9IiNEZWphVnVTYW5zLTMyIi8+JiN4YTsgICAgICAgPHVzZSB4PSI2My42MjMwNDciIHhsaW5rOmhyZWY9IiNEZWphVnVTYW5zLTJlIi8+JiN4YTsgICAgICAgPHVzZSB4PSI5NS40MTAxNTYiIHhsaW5rOmhyZWY9IiNEZWphVnVTYW5zLTM1Ii8+JiN4YTsgICAgICA8L2c+JiN4YTsgICAgIDwvZz4mI3hhOyAgICA8L2c+JiN4YTsgICAgPGcgaWQ9Inh0aWNrXzMiPiYjeGE7ICAgICA8ZyBpZD0ibGluZTJkXzMiPiYjeGE7ICAgICAgPGc+JiN4YTsgICAgICAgPHVzZSBzdHlsZT0ic3Ryb2tlOiAjMDAwMDAwOyBzdHJva2Utd2lkdGg6IDAuOCIgeT0iNTAzLjA4IiB4PSIzNTAuMDkzMjciIHhsaW5rOmhyZWY9IiNtMTNmMGMxMDExNCIvPiYjeGE7ICAgICAgPC9nPiYjeGE7ICAgICA8L2c+JiN4YTsgICAgIDxnIGlkPSJ0ZXh0XzMiPiYjeGE7ICAgICAgJiN4YTsgICAgICA8ZyB0cmFuc2Zvcm09InRyYW5zbGF0ZSgzNDIuMTQxNzA3IDUxNy42Nzg0MzcpIHNjYWxlKDAuMSAtMC4xKSI+JiN4YTsgICAgICAgPGRlZnM+JiN4YTsgICAgICAgIDxwYXRoIHRyYW5zZm9ybT0ic2NhbGUoMC4wMTU2MjUpIiBkPSJNIDI1OTcgMjUxNiAmIzEwO1EgMzA1MCAyNDE5IDMzMDQgMjExMiAmIzEwO1EgMzU1OSAxODA2IDM1NTkgMTM1NiAmIzEwO1EgMzU1OSA2NjYgMzA4NCAyODcgJiMxMDtRIDI2MDkgLTkxIDE3MzQgLTkxICYjMTA7USAxNDQxIC05MSAxMTMwIC0zMyAmIzEwO1EgODE5IDI1IDQ4OCAxNDEgJiMxMDtMIDQ4OCA3NTAgJiMxMDtRIDc1MCA1OTcgMTA2MiA1MTkgJiMxMDtRIDEzNzUgNDQxIDE3MTYgNDQxICYjMTA7USAyMzA5IDQ0MSAyNjIwIDY3NSAmIzEwO1EgMjkzMSA5MDkgMjkzMSAxMzU2ICYjMTA7USAyOTMxIDE3NjkgMjY0MiAyMDAxICYjMTA7USAyMzUzIDIyMzQgMTgzOCAyMjM0ICYjMTA7TCAxMjk0IDIyMzQgJiMxMDtMIDEyOTQgMjc1MyAmIzEwO0wgMTg2MyAyNzUzICYjMTA7USAyMzI4IDI3NTMgMjU3NSAyOTM5ICYjMTA7USAyODIyIDMxMjUgMjgyMiAzNDc1ICYjMTA7USAyODIyIDM4MzQgMjU2NyA0MDI2ICYjMTA7USAyMzEzIDQyMTkgMTgzOCA0MjE5ICYjMTA7USAxNTc4IDQyMTkgMTI4MSA0MTYyICYjMTA7USA5ODQgNDEwNiA2MjggMzk4OCAmIzEwO0wgNjI4IDQ1NTAgJiMxMDtRIDk4OCA0NjUwIDEzMDIgNDcwMCAmIzEwO1EgMTYxNiA0NzUwIDE4OTQgNDc1MCAmIzEwO1EgMjYxMyA0NzUwIDMwMzEgNDQyMyAmIzEwO1EgMzQ1MCA0MDk3IDM0NTAgMzU0MSAmIzEwO1EgMzQ1MCAzMTUzIDMyMjggMjg4NiAmIzEwO1EgMzAwNiAyNjE5IDI1OTcgMjUxNiAmIzEwO3oiIGlkPSJEZWphVnVTYW5zLTMzIi8+JiN4YTsgICAgICAgPC9kZWZzPiYjeGE7ICAgICAgIDx1c2UgeGxpbms6aHJlZj0iI0RlamFWdVNhbnMtMzMiLz4mI3hhOyAgICAgICA8dXNlIHg9IjYzLjYyMzA0NyIgeGxpbms6aHJlZj0iI0RlamFWdVNhbnMtMmUiLz4mI3hhOyAgICAgICA8dXNlIHg9Ijk1LjQxMDE1NiIgeGxpbms6aHJlZj0iI0RlamFWdVNhbnMtMzAiLz4mI3hhOyAgICAgIDwvZz4mI3hhOyAgICAgPC9nPiYjeGE7ICAgIDwvZz4mI3hhOyAgICA8ZyBpZD0ieHRpY2tfNCI+JiN4YTsgICAgIDxnIGlkPSJsaW5lMmRfNCI+JiN4YTsgICAgICA8Zz4mI3hhOyAgICAgICA8dXNlIHN0eWxlPSJzdHJva2U6ICMwMDAwMDA7IHN0cm9rZS13aWR0aDogMC44IiB5PSI1MDMuMDgiIHg9IjQ2Ny42MDUiIHhsaW5rOmhyZWY9IiNtMTNmMGMxMDExNCIvPiYjeGE7ICAgICAgPC9nPiYjeGE7ICAgICA8L2c+JiN4YTsgICAgIDxnIGlkPSJ0ZXh0XzQiPiYjeGE7ICAgICAgJiN4YTsgICAgICA8ZyB0cmFuc2Zvcm09InRyYW5zbGF0ZSg0NTkuNjUzNDM3IDUxNy42Nzg0MzcpIHNjYWxlKDAuMSAtMC4xKSI+JiN4YTsgICAgICAgPHVzZSB4bGluazpocmVmPSIjRGVqYVZ1U2Fucy0zMyIvPiYjeGE7ICAgICAgIDx1c2UgeD0iNjMuNjIzMDQ3IiB4bGluazpocmVmPSIjRGVqYVZ1U2Fucy0yZSIvPiYjeGE7ICAgICAgIDx1c2UgeD0iOTUuNDEwMTU2IiB4bGluazpocmVmPSIjRGVqYVZ1U2Fucy0zNSIvPiYjeGE7ICAgICAgPC9nPiYjeGE7ICAgICA8L2c+JiN4YTsgICAgPC9nPiYjeGE7ICAgIDxnIGlkPSJ4dGlja181Ij4mI3hhOyAgICAgPGcgaWQ9ImxpbmUyZF81Ij4mI3hhOyAgICAgIDxnPiYjeGE7ICAgICAgIDx1c2Ugc3R5bGU9InN0cm9rZTogIzAwMDAwMDsgc3Ryb2tlLXdpZHRoOiAwLjgiIHk9IjUwMy4wOCIgeD0iNTg1LjExNjczIiB4bGluazpocmVmPSIjbTEzZjBjMTAxMTQiLz4mI3hhOyAgICAgIDwvZz4mI3hhOyAgICAgPC9nPiYjeGE7ICAgICA8ZyBpZD0idGV4dF81Ij4mI3hhOyAgICAgICYjeGE7ICAgICAgPGcgdHJhbnNmb3JtPSJ0cmFuc2xhdGUoNTc3LjE2NTE2OCA1MTcuNjc4NDM3KSBzY2FsZSgwLjEgLTAuMSkiPiYjeGE7ICAgICAgIDxkZWZzPiYjeGE7ICAgICAgICA8cGF0aCB0cmFuc2Zvcm09InNjYWxlKDAuMDE1NjI1KSIgZD0iTSAyNDE5IDQxMTYgJiMxMDtMIDgyNSAxNjI1ICYjMTA7TCAyNDE5IDE2MjUgJiMxMDtMIDI0MTkgNDExNiAmIzEwO3omIzEwO00gMjI1MyA0NjY2ICYjMTA7TCAzMDQ3IDQ2NjYgJiMxMDtMIDMwNDcgMTYyNSAmIzEwO0wgMzcxMyAxNjI1ICYjMTA7TCAzNzEzIDExMDAgJiMxMDtMIDMwNDcgMTEwMCAmIzEwO0wgMzA0NyAwICYjMTA7TCAyNDE5IDAgJiMxMDtMIDI0MTkgMTEwMCAmIzEwO0wgMzEzIDExMDAgJiMxMDtMIDMxMyAxNzA5ICYjMTA7TCAyMjUzIDQ2NjYgJiMxMDt6IiBpZD0iRGVqYVZ1U2Fucy0zNCIvPiYjeGE7ICAgICAgIDwvZGVmcz4mI3hhOyAgICAgICA8dXNlIHhsaW5rOmhyZWY9IiNEZWphVnVTYW5zLTM0Ii8+JiN4YTsgICAgICAgPHVzZSB4PSI2My42MjMwNDciIHhsaW5rOmhyZWY9IiNEZWphVnVTYW5zLTJlIi8+JiN4YTsgICAgICAgPHVzZSB4PSI5NS40MTAxNTYiIHhsaW5rOmhyZWY9IiNEZWphVnVTYW5zLTMwIi8+JiN4YTsgICAgICA8L2c+JiN4YTsgICAgIDwvZz4mI3hhOyAgICA8L2c+JiN4YTsgICAgPGcgaWQ9Inh0aWNrXzYiPiYjeGE7ICAgICA8ZyBpZD0ibGluZTJkXzYiPiYjeGE7ICAgICAgPGc+JiN4YTsgICAgICAgPHVzZSBzdHlsZT0ic3Ryb2tlOiAjMDAwMDAwOyBzdHJva2Utd2lkdGg6IDAuOCIgeT0iNTAzLjA4IiB4PSI3MDIuNjI4NDYiIHhsaW5rOmhyZWY9IiNtMTNmMGMxMDExNCIvPiYjeGE7ICAgICAgPC9nPiYjeGE7ICAgICA8L2c+JiN4YTsgICAgIDxnIGlkPSJ0ZXh0XzYiPiYjeGE7ICAgICAgJiN4YTsgICAgICA8ZyB0cmFuc2Zvcm09InRyYW5zbGF0ZSg2OTQuNjc2ODk4IDUxNy42Nzg0MzcpIHNjYWxlKDAuMSAtMC4xKSI+JiN4YTsgICAgICAgPHVzZSB4bGluazpocmVmPSIjRGVqYVZ1U2Fucy0zNCIvPiYjeGE7ICAgICAgIDx1c2UgeD0iNjMuNjIzMDQ3IiB4bGluazpocmVmPSIjRGVqYVZ1U2Fucy0yZSIvPiYjeGE7ICAgICAgIDx1c2UgeD0iOTUuNDEwMTU2IiB4bGluazpocmVmPSIjRGVqYVZ1U2Fucy0zNSIvPiYjeGE7ICAgICAgPC9nPiYjeGE7ICAgICA8L2c+JiN4YTsgICAgPC9nPiYjeGE7ICAgIDxnIGlkPSJ4dGlja183Ij4mI3hhOyAgICAgPGcgaWQ9ImxpbmUyZF83Ij4mI3hhOyAgICAgIDxnPiYjeGE7ICAgICAgIDx1c2Ugc3R5bGU9InN0cm9rZTogIzAwMDAwMDsgc3Ryb2tlLXdpZHRoOiAwLjgiIHk9IjUwMy4wOCIgeD0iODIwLjE0MDE5MSIgeGxpbms6aHJlZj0iI20xM2YwYzEwMTE0Ii8+JiN4YTsgICAgICA8L2c+JiN4YTsgICAgIDwvZz4mI3hhOyAgICAgPGcgaWQ9InRleHRfNyI+JiN4YTsgICAgICAmI3hhOyAgICAgIDxnIHRyYW5zZm9ybT0idHJhbnNsYXRlKDgxMi4xODg2MjggNTE3LjY3ODQzNykgc2NhbGUoMC4xIC0wLjEpIj4mI3hhOyAgICAgICA8dXNlIHhsaW5rOmhyZWY9IiNEZWphVnVTYW5zLTM1Ii8+JiN4YTsgICAgICAgPHVzZSB4PSI2My42MjMwNDciIHhsaW5rOmhyZWY9IiNEZWphVnVTYW5zLTJlIi8+JiN4YTsgICAgICAgPHVzZSB4PSI5NS40MTAxNTYiIHhsaW5rOmhyZWY9IiNEZWphVnVTYW5zLTMwIi8+JiN4YTsgICAgICA8L2c+JiN4YTsgICAgIDwvZz4mI3hhOyAgICA8L2c+JiN4YTsgICAgPGcgaWQ9InRleHRfOCI+JiN4YTsgICAgICYjeGE7ICAgICA8ZyB0cmFuc2Zvcm09InRyYW5zbGF0ZSgzODkuNTU1NzgxIDUzNS4xNTU3ODEpIHNjYWxlKDAuMTUgLTAuMTUpIj4mI3hhOyAgICAgIDxkZWZzPiYjeGE7ICAgICAgIDxwYXRoIHRyYW5zZm9ybT0ic2NhbGUoMC4wMTU2MjUpIiBkPSJNIDM0MjUgNDUxMyAmIzEwO0wgMzQyNSAzODk3ICYjMTA7USAzMDY2IDQwNjkgMjc0NyA0MTUzICYjMTA7USAyNDI4IDQyMzggMjEzMSA0MjM4ICYjMTA7USAxNjE2IDQyMzggMTMzNiA0MDM4ICYjMTA7USAxMDU2IDM4MzggMTA1NiAzNDY5ICYjMTA7USAxMDU2IDMxNTkgMTI0MiAzMDAxICYjMTA7USAxNDI4IDI4NDQgMTk0NyAyNzQ3ICYjMTA7TCAyMzI4IDI2NjkgJiMxMDtRIDMwMzQgMjUzNCAzMzcwIDIxOTUgJiMxMDtRIDM3MDYgMTg1NiAzNzA2IDEyODggJiMxMDtRIDM3MDYgNjA5IDMyNTEgMjU5ICYjMTA7USAyNzk3IC05MSAxOTE5IC05MSAmIzEwO1EgMTU4OCAtOTEgMTIxNCAtMTYgJiMxMDtRIDg0MSA1OSA0NDEgMjA2ICYjMTA7TCA0NDEgODU2ICYjMTA7USA4MjUgNjQxIDExOTQgNTMxICYjMTA7USAxNTYzIDQyMiAxOTE5IDQyMiAmIzEwO1EgMjQ1OSA0MjIgMjc1MyA2MzQgJiMxMDtRIDMwNDcgODQ3IDMwNDcgMTI0MSAmIzEwO1EgMzA0NyAxNTg0IDI4MzYgMTc3OCAmIzEwO1EgMjYyNSAxOTcyIDIxNDQgMjA2OSAmIzEwO0wgMTc1OSAyMTQ0ICYjMTA7USAxMDUzIDIyODQgNzM3IDI1ODQgJiMxMDtRIDQyMiAyODg0IDQyMiAzNDE5ICYjMTA7USA0MjIgNDAzOCA4NTggNDM5NCAmIzEwO1EgMTI5NCA0NzUwIDIwNTkgNDc1MCAmIzEwO1EgMjM4OCA0NzUwIDI3MjggNDY5MCAmIzEwO1EgMzA2OSA0NjMxIDM0MjUgNDUxMyAmIzEwO3oiIGlkPSJEZWphVnVTYW5zLTUzIi8+JiN4YTsgICAgICAgPHBhdGggdHJhbnNmb3JtPSJzY2FsZSgwLjAxNTYyNSkiIGQ9Ik0gMzU5NyAxODk0ICYjMTA7TCAzNTk3IDE2MTMgJiMxMDtMIDk1MyAxNjEzICYjMTA7USA5OTEgMTAxOSAxMzExIDcwOCAmIzEwO1EgMTYzMSAzOTcgMjIwMyAzOTcgJiMxMDtRIDI1MzQgMzk3IDI4NDUgNDc4ICYjMTA7USAzMTU2IDU1OSAzNDYzIDcyMiAmIzEwO0wgMzQ2MyAxNzggJiMxMDtRIDMxNTMgNDcgMjgyOCAtMjIgJiMxMDtRIDI1MDMgLTkxIDIxNjkgLTkxICYjMTA7USAxMzMxIC05MSA4NDIgMzk2ICYjMTA7USAzNTMgODg0IDM1MyAxNzE2ICYjMTA7USAzNTMgMjU3NSA4MTcgMzA3OSAmIzEwO1EgMTI4MSAzNTg0IDIwNjkgMzU4NCAmIzEwO1EgMjc3NSAzNTg0IDMxODYgMzEyOSAmIzEwO1EgMzU5NyAyNjc1IDM1OTcgMTg5NCAmIzEwO3omIzEwO00gMzAyMiAyMDYzICYjMTA7USAzMDE2IDI1MzQgMjc1OCAyODE1ICYjMTA7USAyNTAwIDMwOTcgMjA3NSAzMDk3ICYjMTA7USAxNTk0IDMwOTcgMTMwNSAyODI1ICYjMTA7USAxMDE2IDI1NTMgOTcyIDIwNTkgJiMxMDtMIDMwMjIgMjA2MyAmIzEwO3oiIGlkPSJEZWphVnVTYW5zLTY1Ii8+JiN4YTsgICAgICAgPHBhdGggdHJhbnNmb3JtPSJzY2FsZSgwLjAxNTYyNSkiIGQ9Ik0gMzUxMyAyMTEzICYjMTA7TCAzNTEzIDAgJiMxMDtMIDI5MzggMCAmIzEwO0wgMjkzOCAyMDk0ICYjMTA7USAyOTM4IDI1OTEgMjc0NCAyODM3ICYjMTA7USAyNTUwIDMwODQgMjE2MyAzMDg0ICYjMTA7USAxNjk3IDMwODQgMTQyOCAyNzg3ICYjMTA7USAxMTU5IDI0OTEgMTE1OSAxOTc4ICYjMTA7TCAxMTU5IDAgJiMxMDtMIDU4MSAwICYjMTA7TCA1ODEgMzUwMCAmIzEwO0wgMTE1OSAzNTAwICYjMTA7TCAxMTU5IDI5NTYgJiMxMDtRIDEzNjYgMzI3MiAxNjQ1IDM0MjggJiMxMDtRIDE5MjUgMzU4NCAyMjkxIDM1ODQgJiMxMDtRIDI4OTQgMzU4NCAzMjAzIDMyMTEgJiMxMDtRIDM1MTMgMjgzOCAzNTEzIDIxMTMgJiMxMDt6IiBpZD0iRGVqYVZ1U2Fucy02ZSIvPiYjeGE7ICAgICAgIDxwYXRoIHRyYW5zZm9ybT0ic2NhbGUoMC4wMTU2MjUpIiBkPSJNIDI4MzQgMzM5NyAmIzEwO0wgMjgzNCAyODUzICYjMTA7USAyNTkxIDI5NzggMjMyOCAzMDQwICYjMTA7USAyMDY2IDMxMDMgMTc4NCAzMTAzICYjMTA7USAxMzU2IDMxMDMgMTE0MiAyOTcyICYjMTA7USA5MjggMjg0MSA5MjggMjU3OCAmIzEwO1EgOTI4IDIzNzggMTA4MSAyMjY0ICYjMTA7USAxMjM0IDIxNTAgMTY5NyAyMDQ3ICYjMTA7TCAxODk0IDIwMDMgJiMxMDtRIDI1MDYgMTg3MiAyNzY0IDE2MzMgJiMxMDtRIDMwMjIgMTM5NCAzMDIyIDk2NiAmIzEwO1EgMzAyMiA0NzggMjYzNiAxOTMgJiMxMDtRIDIyNTAgLTkxIDE1NzUgLTkxICYjMTA7USAxMjk0IC05MSA5ODkgLTM2ICYjMTA7USA2ODQgMTkgMzQ3IDEyOCAmIzEwO0wgMzQ3IDcyMiAmIzEwO1EgNjY2IDU1NiA5NzUgNDczICYjMTA7USAxMjg0IDM5MSAxNTg4IDM5MSAmIzEwO1EgMTk5NCAzOTEgMjIxMiA1MzAgJiMxMDtRIDI0MzEgNjY5IDI0MzEgOTIyICYjMTA7USAyNDMxIDExNTYgMjI3MyAxMjgxICYjMTA7USAyMTE2IDE0MDYgMTU4MSAxNTIyICYjMTA7TCAxMzgxIDE1NjkgJiMxMDtRIDg0NyAxNjgxIDYwOSAxOTE0ICYjMTA7USAzNzIgMjE0NyAzNzIgMjU1MyAmIzEwO1EgMzcyIDMwNDcgNzIyIDMzMTUgJiMxMDtRIDEwNzIgMzU4NCAxNzE2IDM1ODQgJiMxMDtRIDIwMzQgMzU4NCAyMzE1IDM1MzcgJiMxMDtRIDI1OTcgMzQ5MSAyODM0IDMzOTcgJiMxMDt6IiBpZD0iRGVqYVZ1U2Fucy03MyIvPiYjeGE7ICAgICAgIDxwYXRoIHRyYW5zZm9ybT0ic2NhbGUoMC4wMTU2MjUpIiBkPSJNIDYwMyAzNTAwICYjMTA7TCAxMTc4IDM1MDAgJiMxMDtMIDExNzggMCAmIzEwO0wgNjAzIDAgJiMxMDtMIDYwMyAzNTAwICYjMTA7eiYjMTA7TSA2MDMgNDg2MyAmIzEwO0wgMTE3OCA0ODYzICYjMTA7TCAxMTc4IDQxMzQgJiMxMDtMIDYwMyA0MTM0ICYjMTA7TCA2MDMgNDg2MyAmIzEwO3oiIGlkPSJEZWphVnVTYW5zLTY5Ii8+JiN4YTsgICAgICAgPHBhdGggdHJhbnNmb3JtPSJzY2FsZSgwLjAxNTYyNSkiIGQ9Ik0gMjkwNiAxNzkxICYjMTA7USAyOTA2IDI0MTYgMjY0OCAyNzU5ICYjMTA7USAyMzkxIDMxMDMgMTkyNSAzMTAzICYjMTA7USAxNDYzIDMxMDMgMTIwNSAyNzU5ICYjMTA7USA5NDcgMjQxNiA5NDcgMTc5MSAmIzEwO1EgOTQ3IDExNjkgMTIwNSA4MjUgJiMxMDtRIDE0NjMgNDgxIDE5MjUgNDgxICYjMTA7USAyMzkxIDQ4MSAyNjQ4IDgyNSAmIzEwO1EgMjkwNiAxMTY5IDI5MDYgMTc5MSAmIzEwO3omIzEwO00gMzQ4MSA0MzQgJiMxMDtRIDM0ODEgLTQ1OSAzMDg0IC04OTUgJiMxMDtRIDI2ODggLTEzMzEgMTg2OSAtMTMzMSAmIzEwO1EgMTU2NiAtMTMzMSAxMjk3IC0xMjg2ICYjMTA7USAxMDI4IC0xMjQxIDc3NSAtMTE0NyAmIzEwO0wgNzc1IC01ODggJiMxMDtRIDEwMjggLTcyNSAxMjc1IC03OTAgJiMxMDtRIDE1MjIgLTg1NiAxNzc4IC04NTYgJiMxMDtRIDIzNDQgLTg1NiAyNjI1IC01NjEgJiMxMDtRIDI5MDYgLTI2NiAyOTA2IDMzMSAmIzEwO0wgMjkwNiA2MTYgJiMxMDtRIDI3MjggMzA2IDI0NTAgMTUzICYjMTA7USAyMTcyIDAgMTc4NCAwICYjMTA7USAxMTQxIDAgNzQ3IDQ5MCAmIzEwO1EgMzUzIDk4MSAzNTMgMTc5MSAmIzEwO1EgMzUzIDI2MDMgNzQ3IDMwOTMgJiMxMDtRIDExNDEgMzU4NCAxNzg0IDM1ODQgJiMxMDtRIDIxNzIgMzU4NCAyNDUwIDM0MzEgJiMxMDtRIDI3MjggMzI3OCAyOTA2IDI5NjkgJiMxMDtMIDI5MDYgMzUwMCAmIzEwO0wgMzQ4MSAzNTAwICYjMTA7TCAzNDgxIDQzNCAmIzEwO3oiIGlkPSJEZWphVnVTYW5zLTY3Ii8+JiN4YTsgICAgICAgPHBhdGggdHJhbnNmb3JtPSJzY2FsZSgwLjAxNTYyNSkiIGlkPSJEZWphVnVTYW5zLTIwIi8+JiN4YTsgICAgICAgPHBhdGggdHJhbnNmb3JtPSJzY2FsZSgwLjAxNTYyNSkiIGQ9Ik0gMjYzMSAyOTYzICYjMTA7USAyNTM0IDMwMTkgMjQyMCAzMDQ1ICYjMTA7USAyMzA2IDMwNzIgMjE2OSAzMDcyICYjMTA7USAxNjgxIDMwNzIgMTQyMCAyNzU1ICYjMTA7USAxMTU5IDI0MzggMTE1OSAxODQ0ICYjMTA7TCAxMTU5IDAgJiMxMDtMIDU4MSAwICYjMTA7TCA1ODEgMzUwMCAmIzEwO0wgMTE1OSAzNTAwICYjMTA7TCAxMTU5IDI5NTYgJiMxMDtRIDEzNDEgMzI3NSAxNjMxIDM0MjkgJiMxMDtRIDE5MjIgMzU4NCAyMzM4IDM1ODQgJiMxMDtRIDIzOTcgMzU4NCAyNDY5IDM1NzYgJiMxMDtRIDI1NDEgMzU2OSAyNjI4IDM1NTMgJiMxMDtMIDI2MzEgMjk2MyAmIzEwO3oiIGlkPSJEZWphVnVTYW5zLTcyIi8+JiN4YTsgICAgICAgPHBhdGggdHJhbnNmb3JtPSJzY2FsZSgwLjAxNTYyNSkiIGQ9Ik0gMjE5NCAxNzU5ICYjMTA7USAxNDk3IDE3NTkgMTIyOCAxNjAwICYjMTA7USA5NTkgMTQ0MSA5NTkgMTA1NiAmIzEwO1EgOTU5IDc1MCAxMTYxIDU3MCAmIzEwO1EgMTM2MyAzOTEgMTcwOSAzOTEgJiMxMDtRIDIxODggMzkxIDI0NzcgNzMwICYjMTA7USAyNzY2IDEwNjkgMjc2NiAxNjMxICYjMTA7TCAyNzY2IDE3NTkgJiMxMDtMIDIxOTQgMTc1OSAmIzEwO3omIzEwO00gMzM0MSAxOTk3ICYjMTA7TCAzMzQxIDAgJiMxMDtMIDI3NjYgMCAmIzEwO0wgMjc2NiA1MzEgJiMxMDtRIDI1NjkgMjEzIDIyNzUgNjEgJiMxMDtRIDE5ODEgLTkxIDE1NTYgLTkxICYjMTA7USAxMDE5IC05MSA3MDEgMjExICYjMTA7USAzODQgNTEzIDM4NCAxMDE5ICYjMTA7USAzODQgMTYwOSA3NzkgMTkwOSAmIzEwO1EgMTE3NSAyMjA5IDE5NTkgMjIwOSAmIzEwO0wgMjc2NiAyMjA5ICYjMTA7TCAyNzY2IDIyNjYgJiMxMDtRIDI3NjYgMjY2MyAyNTA1IDI4ODAgJiMxMDtRIDIyNDQgMzA5NyAxNzcyIDMwOTcgJiMxMDtRIDE0NzIgMzA5NyAxMTg3IDMwMjUgJiMxMDtRIDkwMyAyOTUzIDY0MSAyODA5ICYjMTA7TCA2NDEgMzM0MSAmIzEwO1EgOTU2IDM0NjMgMTI1MyAzNTIzICYjMTA7USAxNTUwIDM1ODQgMTgzMSAzNTg0ICYjMTA7USAyNTkxIDM1ODQgMjk2NiAzMTkwICYjMTA7USAzMzQxIDI3OTcgMzM0MSAxOTk3ICYjMTA7eiIgaWQ9IkRlamFWdVNhbnMtNjEiLz4mI3hhOyAgICAgICA8cGF0aCB0cmFuc2Zvcm09InNjYWxlKDAuMDE1NjI1KSIgZD0iTSAyOTA2IDI5NjkgJiMxMDtMIDI5MDYgNDg2MyAmIzEwO0wgMzQ4MSA0ODYzICYjMTA7TCAzNDgxIDAgJiMxMDtMIDI5MDYgMCAmIzEwO0wgMjkwNiA1MjUgJiMxMDtRIDI3MjUgMjEzIDI0NDggNjEgJiMxMDtRIDIxNzIgLTkxIDE3ODQgLTkxICYjMTA7USAxMTUwIC05MSA3NTEgNDE1ICYjMTA7USAzNTMgOTIyIDM1MyAxNzQ3ICYjMTA7USAzNTMgMjU3MiA3NTEgMzA3OCAmIzEwO1EgMTE1MCAzNTg0IDE3ODQgMzU4NCAmIzEwO1EgMjE3MiAzNTg0IDI0NDggMzQzMiAmIzEwO1EgMjcyNSAzMjgxIDI5MDYgMjk2OSAmIzEwO3omIzEwO00gOTQ3IDE3NDcgJiMxMDtRIDk0NyAxMTEzIDEyMDggNzUyICYjMTA7USAxNDY5IDM5MSAxOTI1IDM5MSAmIzEwO1EgMjM4MSAzOTEgMjY0MyA3NTIgJiMxMDtRIDI5MDYgMTExMyAyOTA2IDE3NDcgJiMxMDtRIDI5MDYgMjM4MSAyNjQzIDI3NDIgJiMxMDtRIDIzODEgMzEwMyAxOTI1IDMxMDMgJiMxMDtRIDE0NjkgMzEwMyAxMjA4IDI3NDIgJiMxMDtRIDk0NyAyMzgxIDk0NyAxNzQ3ICYjMTA7eiIgaWQ9IkRlamFWdVNhbnMtNjQiLz4mI3hhOyAgICAgICA8cGF0aCB0cmFuc2Zvcm09InNjYWxlKDAuMDE1NjI1KSIgZD0iTSA1NDQgMTM4MSAmIzEwO0wgNTQ0IDM1MDAgJiMxMDtMIDExMTkgMzUwMCAmIzEwO0wgMTExOSAxNDAzICYjMTA7USAxMTE5IDkwNiAxMzEyIDY1NyAmIzEwO1EgMTUwNiA0MDkgMTg5NCA0MDkgJiMxMDtRIDIzNTkgNDA5IDI2MjkgNzA2ICYjMTA7USAyOTAwIDEwMDMgMjkwMCAxNTE2ICYjMTA7TCAyOTAwIDM1MDAgJiMxMDtMIDM0NzUgMzUwMCAmIzEwO0wgMzQ3NSAwICYjMTA7TCAyOTAwIDAgJiMxMDtMIDI5MDAgNTM4ICYjMTA7USAyNjkxIDIxOSAyNDE0IDY0ICYjMTA7USAyMTM4IC05MSAxNzcyIC05MSAmIzEwO1EgMTE2OSAtOTEgODU2IDI4NCAmIzEwO1EgNTQ0IDY1OSA1NDQgMTM4MSAmIzEwO3omIzEwO00gMTk5MSAzNTg0ICYjMTA7TCAxOTkxIDM1ODQgJiMxMDt6IiBpZD0iRGVqYVZ1U2Fucy03NSIvPiYjeGE7ICAgICAgIDxwYXRoIHRyYW5zZm9ybT0ic2NhbGUoMC4wMTU2MjUpIiBkPSJNIDU1MCA0ODYzICYjMTA7TCAxODc1IDQ4NjMgJiMxMDtMIDE4NzUgNDQxNiAmIzEwO0wgMTEyNSA0NDE2ICYjMTA7TCAxMTI1IC0zOTcgJiMxMDtMIDE4NzUgLTM5NyAmIzEwO0wgMTg3NSAtODQ0ICYjMTA7TCA1NTAgLTg0NCAmIzEwO0wgNTUwIDQ4NjMgJiMxMDt6IiBpZD0iRGVqYVZ1U2Fucy01YiIvPiYjeGE7ICAgICAgIDxwYXRoIHRyYW5zZm9ybT0ic2NhbGUoMC4wMTU2MjUpIiBkPSJNIDMzMjggMjgyOCAmIzEwO1EgMzU0NCAzMjE2IDM4NDQgMzQwMCAmIzEwO1EgNDE0NCAzNTg0IDQ1NTAgMzU4NCAmIzEwO1EgNTA5NyAzNTg0IDUzOTQgMzIwMSAmIzEwO1EgNTY5MSAyODE5IDU2OTEgMjExMyAmIzEwO0wgNTY5MSAwICYjMTA7TCA1MTEzIDAgJiMxMDtMIDUxMTMgMjA5NCAmIzEwO1EgNTExMyAyNTk3IDQ5MzQgMjg0MCAmIzEwO1EgNDc1NiAzMDg0IDQzOTEgMzA4NCAmIzEwO1EgMzk0NCAzMDg0IDM2ODQgMjc4NyAmIzEwO1EgMzQyNSAyNDkxIDM0MjUgMTk3OCAmIzEwO0wgMzQyNSAwICYjMTA7TCAyODQ3IDAgJiMxMDtMIDI4NDcgMjA5NCAmIzEwO1EgMjg0NyAyNjAwIDI2NjkgMjg0MiAmIzEwO1EgMjQ5MSAzMDg0IDIxMTkgMzA4NCAmIzEwO1EgMTY3OCAzMDg0IDE0MTggMjc4NiAmIzEwO1EgMTE1OSAyNDg4IDExNTkgMTk3OCAmIzEwO0wgMTE1OSAwICYjMTA7TCA1ODEgMCAmIzEwO0wgNTgxIDM1MDAgJiMxMDtMIDExNTkgMzUwMCAmIzEwO0wgMTE1OSAyOTU2ICYjMTA7USAxMzU2IDMyNzggMTYzMSAzNDMxICYjMTA7USAxOTA2IDM1ODQgMjI4NCAzNTg0ICYjMTA7USAyNjY2IDM1ODQgMjkzMyAzMzkwICYjMTA7USAzMjAwIDMxOTcgMzMyOCAyODI4ICYjMTA7eiIgaWQ9IkRlamFWdVNhbnMtNmQiLz4mI3hhOyAgICAgICA8cGF0aCB0cmFuc2Zvcm09InNjYWxlKDAuMDE1NjI1KSIgZD0iTSAxOTQ3IDQ4NjMgJiMxMDtMIDE5NDcgLTg0NCAmIzEwO0wgNjIyIC04NDQgJiMxMDtMIDYyMiAtMzk3ICYjMTA7TCAxMzY5IC0zOTcgJiMxMDtMIDEzNjkgNDQxNiAmIzEwO0wgNjIyIDQ0MTYgJiMxMDtMIDYyMiA0ODYzICYjMTA7TCAxOTQ3IDQ4NjMgJiMxMDt6IiBpZD0iRGVqYVZ1U2Fucy01ZCIvPiYjeGE7ICAgICAgPC9kZWZzPiYjeGE7ICAgICAgPHVzZSB4bGluazpocmVmPSIjRGVqYVZ1U2Fucy01MyIvPiYjeGE7ICAgICAgPHVzZSB4PSI2My40NzY1NjIiIHhsaW5rOmhyZWY9IiNEZWphVnVTYW5zLTY1Ii8+JiN4YTsgICAgICA8dXNlIHg9IjEyNSIgeGxpbms6aHJlZj0iI0RlamFWdVNhbnMtNmUiLz4mI3hhOyAgICAgIDx1c2UgeD0iMTg4LjM3ODkwNiIgeGxpbms6aHJlZj0iI0RlamFWdVNhbnMtNzMiLz4mI3hhOyAgICAgIDx1c2UgeD0iMjQwLjQ3ODUxNiIgeGxpbms6aHJlZj0iI0RlamFWdVNhbnMtNjkiLz4mI3hhOyAgICAgIDx1c2UgeD0iMjY4LjI2MTcxOSIgeGxpbms6aHJlZj0iI0RlamFWdVNhbnMtNmUiLz4mI3hhOyAgICAgIDx1c2UgeD0iMzMxLjY0MDYyNSIgeGxpbms6aHJlZj0iI0RlamFWdVNhbnMtNjciLz4mI3hhOyAgICAgIDx1c2UgeD0iMzk1LjExNzE4OCIgeGxpbms6aHJlZj0iI0RlamFWdVNhbnMtMjAiLz4mI3hhOyAgICAgIDx1c2UgeD0iNDI2LjkwNDI5NyIgeGxpbms6aHJlZj0iI0RlamFWdVNhbnMtNzIiLz4mI3hhOyAgICAgIDx1c2UgeD0iNDY4LjAxNzU3OCIgeGxpbms6aHJlZj0iI0RlamFWdVNhbnMtNjEiLz4mI3hhOyAgICAgIDx1c2UgeD0iNTI5LjI5Njg3NSIgeGxpbms6aHJlZj0iI0RlamFWdVNhbnMtNjQiLz4mI3hhOyAgICAgIDx1c2UgeD0iNTkyLjc3MzQzOCIgeGxpbms6aHJlZj0iI0RlamFWdVNhbnMtNjkiLz4mI3hhOyAgICAgIDx1c2UgeD0iNjIwLjU1NjY0MSIgeGxpbms6aHJlZj0iI0RlamFWdVNhbnMtNzUiLz4mI3hhOyAgICAgIDx1c2UgeD0iNjgzLjkzNTU0NyIgeGxpbms6aHJlZj0iI0RlamFWdVNhbnMtNzMiLz4mI3hhOyAgICAgIDx1c2UgeD0iNzM2LjAzNTE1NiIgeGxpbms6aHJlZj0iI0RlamFWdVNhbnMtMjAiLz4mI3hhOyAgICAgIDx1c2UgeD0iNzY3LjgyMjI2NiIgeGxpbms6aHJlZj0iI0RlamFWdVNhbnMtNWIiLz4mI3hhOyAgICAgIDx1c2UgeD0iODA2LjgzNTkzOCIgeGxpbms6aHJlZj0iI0RlamFWdVNhbnMtNmQiLz4mI3hhOyAgICAgIDx1c2UgeD0iOTA0LjI0ODA0NyIgeGxpbms6aHJlZj0iI0RlamFWdVNhbnMtNmQiLz4mI3hhOyAgICAgIDx1c2UgeD0iMTAwMS42NjAxNTYiIHhsaW5rOmhyZWY9IiNEZWphVnVTYW5zLTVkIi8+JiN4YTsgICAgIDwvZz4mI3hhOyAgICA8L2c+JiN4YTsgICA8L2c+JiN4YTsgICA8ZyBpZD0ibWF0cGxvdGxpYi5heGlzXzIiPiYjeGE7ICAgIDxnIGlkPSJ5dGlja18xIj4mI3hhOyAgICAgPGcgaWQ9ImxpbmUyZF84Ij4mI3hhOyAgICAgIDxwYXRoIHN0eWxlPSJmaWxsOiBub25lOyBzdHJva2U6ICNiMGIwYjA7IHN0cm9rZS13aWR0aDogMC44OyBzdHJva2UtbGluZWNhcDogc3F1YXJlIiBjbGlwLXBhdGg9InVybCgjcDMzYTg0MTQ5MjIpIiBkPSJNIDY2Ljg5IDQ4OS41NzExOTMgJiMxMDtMIDg2OC4zMiA0ODkuNTcxMTkzIi8+JiN4YTsgICAgIDwvZz4mI3hhOyAgICAgPGcgaWQ9ImxpbmUyZF85Ij4mI3hhOyAgICAgIDxkZWZzPiYjeGE7ICAgICAgIDxwYXRoIHN0eWxlPSJzdHJva2U6ICMwMDAwMDA7IHN0cm9rZS13aWR0aDogMC44IiBkPSJNIDAgMCAmIzEwO0wgLTMuNSAwIiBpZD0ibTBlM2Q0MTk2MGUiLz4mI3hhOyAgICAgIDwvZGVmcz4mI3hhOyAgICAgIDxnPiYjeGE7ICAgICAgIDx1c2Ugc3R5bGU9InN0cm9rZTogIzAwMDAwMDsgc3Ryb2tlLXdpZHRoOiAwLjgiIHk9IjQ4OS41NzExOTMiIHg9IjY2Ljg5IiB4bGluazpocmVmPSIjbTBlM2Q0MTk2MGUiLz4mI3hhOyAgICAgIDwvZz4mI3hhOyAgICAgPC9nPiYjeGE7ICAgICA8ZyBpZD0idGV4dF85Ij4mI3hhOyAgICAgICYjeGE7ICAgICAgPGcgdHJhbnNmb3JtPSJ0cmFuc2xhdGUoMjkuMjQ0Njg4IDQ5My4zNzA0MTIpIHNjYWxlKDAuMSAtMC4xKSI+JiN4YTsgICAgICAgPGRlZnM+JiN4YTsgICAgICAgIDxwYXRoIHRyYW5zZm9ybT0ic2NhbGUoMC4wMTU2MjUpIiBkPSJNIDY3OCAyMjcyICYjMTA7TCA0Njg0IDIyNzIgJiMxMDtMIDQ2ODQgMTc0MSAmIzEwO0wgNjc4IDE3NDEgJiMxMDtMIDY3OCAyMjcyICYjMTA7eiIgaWQ9IkRlamFWdVNhbnMtMjIxMiIvPiYjeGE7ICAgICAgICA8cGF0aCB0cmFuc2Zvcm09InNjYWxlKDAuMDE1NjI1KSIgZD0iTSA3OTQgNTMxICYjMTA7TCAxODI1IDUzMSAmIzEwO0wgMTgyNSA0MDkxICYjMTA7TCA3MDMgMzg2NiAmIzEwO0wgNzAzIDQ0NDEgJiMxMDtMIDE4MTkgNDY2NiAmIzEwO0wgMjQ1MCA0NjY2ICYjMTA7TCAyNDUwIDUzMSAmIzEwO0wgMzQ4MSA1MzEgJiMxMDtMIDM0ODEgMCAmIzEwO0wgNzk0IDAgJiMxMDtMIDc5NCA1MzEgJiMxMDt6IiBpZD0iRGVqYVZ1U2Fucy0zMSIvPiYjeGE7ICAgICAgIDwvZGVmcz4mI3hhOyAgICAgICA8dXNlIHhsaW5rOmhyZWY9IiNEZWphVnVTYW5zLTIyMTIiLz4mI3hhOyAgICAgICA8dXNlIHg9IjgzLjc4OTA2MiIgeGxpbms6aHJlZj0iI0RlamFWdVNhbnMtMzAiLz4mI3hhOyAgICAgICA8dXNlIHg9IjE0Ny40MTIxMDkiIHhsaW5rOmhyZWY9IiNEZWphVnVTYW5zLTJlIi8+JiN4YTsgICAgICAgPHVzZSB4PSIxNzkuMTk5MjE5IiB4bGluazpocmVmPSIjRGVqYVZ1U2Fucy0zMSIvPiYjeGE7ICAgICAgIDx1c2UgeD0iMjQyLjgyMjI2NiIgeGxpbms6aHJlZj0iI0RlamFWdVNhbnMtMzUiLz4mI3hhOyAgICAgIDwvZz4mI3hhOyAgICAgPC9nPiYjeGE7ICAgIDwvZz4mI3hhOyAgICA8ZyBpZD0ieXRpY2tfMiI+JiN4YTsgICAgIDxnIGlkPSJsaW5lMmRfMTAiPiYjeGE7ICAgICAgPHBhdGggc3R5bGU9ImZpbGw6IG5vbmU7IHN0cm9rZTogI2IwYjBiMDsgc3Ryb2tlLXdpZHRoOiAwLjg7IHN0cm9rZS1saW5lY2FwOiBzcXVhcmUiIGNsaXAtcGF0aD0idXJsKCNwMzNhODQxNDkyMikiIGQ9Ik0gNjYuODkgNDM0LjgzODQyMyAmIzEwO0wgODY4LjMyIDQzNC44Mzg0MjMiLz4mI3hhOyAgICAgPC9nPiYjeGE7ICAgICA8ZyBpZD0ibGluZTJkXzExIj4mI3hhOyAgICAgIDxnPiYjeGE7ICAgICAgIDx1c2Ugc3R5bGU9InN0cm9rZTogIzAwMDAwMDsgc3Ryb2tlLXdpZHRoOiAwLjgiIHk9IjQzNC44Mzg0MjMiIHg9IjY2Ljg5IiB4bGluazpocmVmPSIjbTBlM2Q0MTk2MGUiLz4mI3hhOyAgICAgIDwvZz4mI3hhOyAgICAgPC9nPiYjeGE7ICAgICA8ZyBpZD0idGV4dF8xMCI+JiN4YTsgICAgICAmI3hhOyAgICAgIDxnIHRyYW5zZm9ybT0idHJhbnNsYXRlKDI5LjI0NDY4OCA0MzguNjM3NjQxKSBzY2FsZSgwLjEgLTAuMSkiPiYjeGE7ICAgICAgIDx1c2UgeGxpbms6aHJlZj0iI0RlamFWdVNhbnMtMjIxMiIvPiYjeGE7ICAgICAgIDx1c2UgeD0iODMuNzg5MDYyIiB4bGluazpocmVmPSIjRGVqYVZ1U2Fucy0zMCIvPiYjeGE7ICAgICAgIDx1c2UgeD0iMTQ3LjQxMjEwOSIgeGxpbms6aHJlZj0iI0RlamFWdVNhbnMtMmUiLz4mI3hhOyAgICAgICA8dXNlIHg9IjE3OS4xOTkyMTkiIHhsaW5rOmhyZWY9IiNEZWphVnVTYW5zLTMxIi8+JiN4YTsgICAgICAgPHVzZSB4PSIyNDIuODIyMjY2IiB4bGluazpocmVmPSIjRGVqYVZ1U2Fucy0zMCIvPiYjeGE7ICAgICAgPC9nPiYjeGE7ICAgICA8L2c+JiN4YTsgICAgPC9nPiYjeGE7ICAgIDxnIGlkPSJ5dGlja18zIj4mI3hhOyAgICAgPGcgaWQ9ImxpbmUyZF8xMiI+JiN4YTsgICAgICA8cGF0aCBzdHlsZT0iZmlsbDogbm9uZTsgc3Ryb2tlOiAjYjBiMGIwOyBzdHJva2Utd2lkdGg6IDAuODsgc3Ryb2tlLWxpbmVjYXA6IHNxdWFyZSIgY2xpcC1wYXRoPSJ1cmwoI3AzM2E4NDE0OTIyKSIgZD0iTSA2Ni44OSAzODAuMTA1NjUyICYjMTA7TCA4NjguMzIgMzgwLjEwNTY1MiIvPiYjeGE7ICAgICA8L2c+JiN4YTsgICAgIDxnIGlkPSJsaW5lMmRfMTMiPiYjeGE7ICAgICAgPGc+JiN4YTsgICAgICAgPHVzZSBzdHlsZT0ic3Ryb2tlOiAjMDAwMDAwOyBzdHJva2Utd2lkdGg6IDAuOCIgeT0iMzgwLjEwNTY1MiIgeD0iNjYuODkiIHhsaW5rOmhyZWY9IiNtMGUzZDQxOTYwZSIvPiYjeGE7ICAgICAgPC9nPiYjeGE7ICAgICA8L2c+JiN4YTsgICAgIDxnIGlkPSJ0ZXh0XzExIj4mI3hhOyAgICAgICYjeGE7ICAgICAgPGcgdHJhbnNmb3JtPSJ0cmFuc2xhdGUoMjkuMjQ0Njg4IDM4My45MDQ4NzEpIHNjYWxlKDAuMSAtMC4xKSI+JiN4YTsgICAgICAgPHVzZSB4bGluazpocmVmPSIjRGVqYVZ1U2Fucy0yMjEyIi8+JiN4YTsgICAgICAgPHVzZSB4PSI4My43ODkwNjIiIHhsaW5rOmhyZWY9IiNEZWphVnVTYW5zLTMwIi8+JiN4YTsgICAgICAgPHVzZSB4PSIxNDcuNDEyMTA5IiB4bGluazpocmVmPSIjRGVqYVZ1U2Fucy0yZSIvPiYjeGE7ICAgICAgIDx1c2UgeD0iMTc5LjE5OTIxOSIgeGxpbms6aHJlZj0iI0RlamFWdVNhbnMtMzAiLz4mI3hhOyAgICAgICA8dXNlIHg9IjI0Mi44MjIyNjYiIHhsaW5rOmhyZWY9IiNEZWphVnVTYW5zLTM1Ii8+JiN4YTsgICAgICA8L2c+JiN4YTsgICAgIDwvZz4mI3hhOyAgICA8L2c+JiN4YTsgICAgPGcgaWQ9Inl0aWNrXzQiPiYjeGE7ICAgICA8ZyBpZD0ibGluZTJkXzE0Ij4mI3hhOyAgICAgIDxwYXRoIHN0eWxlPSJmaWxsOiBub25lOyBzdHJva2U6ICNiMGIwYjA7IHN0cm9rZS13aWR0aDogMC44OyBzdHJva2UtbGluZWNhcDogc3F1YXJlIiBjbGlwLXBhdGg9InVybCgjcDMzYTg0MTQ5MjIpIiBkPSJNIDY2Ljg5IDMyNS4zNzI4ODIgJiMxMDtMIDg2OC4zMiAzMjUuMzcyODgyIi8+JiN4YTsgICAgIDwvZz4mI3hhOyAgICAgPGcgaWQ9ImxpbmUyZF8xNSI+JiN4YTsgICAgICA8Zz4mI3hhOyAgICAgICA8dXNlIHN0eWxlPSJzdHJva2U6ICMwMDAwMDA7IHN0cm9rZS13aWR0aDogMC44IiB5PSIzMjUuMzcyODgyIiB4PSI2Ni44OSIgeGxpbms6aHJlZj0iI20wZTNkNDE5NjBlIi8+JiN4YTsgICAgICA8L2c+JiN4YTsgICAgIDwvZz4mI3hhOyAgICAgPGcgaWQ9InRleHRfMTIiPiYjeGE7ICAgICAgJiN4YTsgICAgICA8ZyB0cmFuc2Zvcm09InRyYW5zbGF0ZSgzNy42MjQzNzUgMzI5LjE3MjEwMSkgc2NhbGUoMC4xIC0wLjEpIj4mI3hhOyAgICAgICA8dXNlIHhsaW5rOmhyZWY9IiNEZWphVnVTYW5zLTMwIi8+JiN4YTsgICAgICAgPHVzZSB4PSI2My42MjMwNDciIHhsaW5rOmhyZWY9IiNEZWphVnVTYW5zLTJlIi8+JiN4YTsgICAgICAgPHVzZSB4PSI5NS40MTAxNTYiIHhsaW5rOmhyZWY9IiNEZWphVnVTYW5zLTMwIi8+JiN4YTsgICAgICAgPHVzZSB4PSIxNTkuMDMzMjAzIiB4bGluazpocmVmPSIjRGVqYVZ1U2Fucy0zMCIvPiYjeGE7ICAgICAgPC9nPiYjeGE7ICAgICA8L2c+JiN4YTsgICAgPC9nPiYjeGE7ICAgIDxnIGlkPSJ5dGlja181Ij4mI3hhOyAgICAgPGcgaWQ9ImxpbmUyZF8xNiI+JiN4YTsgICAgICA8cGF0aCBzdHlsZT0iZmlsbDogbm9uZTsgc3Ryb2tlOiAjYjBiMGIwOyBzdHJva2Utd2lkdGg6IDAuODsgc3Ryb2tlLWxpbmVjYXA6IHNxdWFyZSIgY2xpcC1wYXRoPSJ1cmwoI3AzM2E4NDE0OTIyKSIgZD0iTSA2Ni44OSAyNzAuNjQwMTExICYjMTA7TCA4NjguMzIgMjcwLjY0MDExMSIvPiYjeGE7ICAgICA8L2c+JiN4YTsgICAgIDxnIGlkPSJsaW5lMmRfMTciPiYjeGE7ICAgICAgPGc+JiN4YTsgICAgICAgPHVzZSBzdHlsZT0ic3Ryb2tlOiAjMDAwMDAwOyBzdHJva2Utd2lkdGg6IDAuOCIgeT0iMjcwLjY0MDExMSIgeD0iNjYuODkiIHhsaW5rOmhyZWY9IiNtMGUzZDQxOTYwZSIvPiYjeGE7ICAgICAgPC9nPiYjeGE7ICAgICA8L2c+JiN4YTsgICAgIDxnIGlkPSJ0ZXh0XzEzIj4mI3hhOyAgICAgICYjeGE7ICAgICAgPGcgdHJhbnNmb3JtPSJ0cmFuc2xhdGUoMzcuNjI0Mzc1IDI3NC40MzkzMykgc2NhbGUoMC4xIC0wLjEpIj4mI3hhOyAgICAgICA8dXNlIHhsaW5rOmhyZWY9IiNEZWphVnVTYW5zLTMwIi8+JiN4YTsgICAgICAgPHVzZSB4PSI2My42MjMwNDciIHhsaW5rOmhyZWY9IiNEZWphVnVTYW5zLTJlIi8+JiN4YTsgICAgICAgPHVzZSB4PSI5NS40MTAxNTYiIHhsaW5rOmhyZWY9IiNEZWphVnVTYW5zLTMwIi8+JiN4YTsgICAgICAgPHVzZSB4PSIxNTkuMDMzMjAzIiB4bGluazpocmVmPSIjRGVqYVZ1U2Fucy0zNSIvPiYjeGE7ICAgICAgPC9nPiYjeGE7ICAgICA8L2c+JiN4YTsgICAgPC9nPiYjeGE7ICAgIDxnIGlkPSJ5dGlja182Ij4mI3hhOyAgICAgPGcgaWQ9ImxpbmUyZF8xOCI+JiN4YTsgICAgICA8cGF0aCBzdHlsZT0iZmlsbDogbm9uZTsgc3Ryb2tlOiAjYjBiMGIwOyBzdHJva2Utd2lkdGg6IDAuODsgc3Ryb2tlLWxpbmVjYXA6IHNxdWFyZSIgY2xpcC1wYXRoPSJ1cmwoI3AzM2E4NDE0OTIyKSIgZD0iTSA2Ni44OSAyMTUuOTA3MzQxICYjMTA7TCA4NjguMzIgMjE1LjkwNzM0MSIvPiYjeGE7ICAgICA8L2c+JiN4YTsgICAgIDxnIGlkPSJsaW5lMmRfMTkiPiYjeGE7ICAgICAgPGc+JiN4YTsgICAgICAgPHVzZSBzdHlsZT0ic3Ryb2tlOiAjMDAwMDAwOyBzdHJva2Utd2lkdGg6IDAuOCIgeT0iMjE1LjkwNzM0MSIgeD0iNjYuODkiIHhsaW5rOmhyZWY9IiNtMGUzZDQxOTYwZSIvPiYjeGE7ICAgICAgPC9nPiYjeGE7ICAgICA8L2c+JiN4YTsgICAgIDxnIGlkPSJ0ZXh0XzE0Ij4mI3hhOyAgICAgICYjeGE7ICAgICAgPGcgdHJhbnNmb3JtPSJ0cmFuc2xhdGUoMzcuNjI0Mzc1IDIxOS43MDY1Nikgc2NhbGUoMC4xIC0wLjEpIj4mI3hhOyAgICAgICA8dXNlIHhsaW5rOmhyZWY9IiNEZWphVnVTYW5zLTMwIi8+JiN4YTsgICAgICAgPHVzZSB4PSI2My42MjMwNDciIHhsaW5rOmhyZWY9IiNEZWphVnVTYW5zLTJlIi8+JiN4YTsgICAgICAgPHVzZSB4PSI5NS40MTAxNTYiIHhsaW5rOmhyZWY9IiNEZWphVnVTYW5zLTMxIi8+JiN4YTsgICAgICAgPHVzZSB4PSIxNTkuMDMzMjAzIiB4bGluazpocmVmPSIjRGVqYVZ1U2Fucy0zMCIvPiYjeGE7ICAgICAgPC9nPiYjeGE7ICAgICA8L2c+JiN4YTsgICAgPC9nPiYjeGE7ICAgIDxnIGlkPSJ5dGlja183Ij4mI3hhOyAgICAgPGcgaWQ9ImxpbmUyZF8yMCI+JiN4YTsgICAgICA8cGF0aCBzdHlsZT0iZmlsbDogbm9uZTsgc3Ryb2tlOiAjYjBiMGIwOyBzdHJva2Utd2lkdGg6IDAuODsgc3Ryb2tlLWxpbmVjYXA6IHNxdWFyZSIgY2xpcC1wYXRoPSJ1cmwoI3AzM2E4NDE0OTIyKSIgZD0iTSA2Ni44OSAxNjEuMTc0NTcxICYjMTA7TCA4NjguMzIgMTYxLjE3NDU3MSIvPiYjeGE7ICAgICA8L2c+JiN4YTsgICAgIDxnIGlkPSJsaW5lMmRfMjEiPiYjeGE7ICAgICAgPGc+JiN4YTsgICAgICAgPHVzZSBzdHlsZT0ic3Ryb2tlOiAjMDAwMDAwOyBzdHJva2Utd2lkdGg6IDAuOCIgeT0iMTYxLjE3NDU3MSIgeD0iNjYuODkiIHhsaW5rOmhyZWY9IiNtMGUzZDQxOTYwZSIvPiYjeGE7ICAgICAgPC9nPiYjeGE7ICAgICA8L2c+JiN4YTsgICAgIDxnIGlkPSJ0ZXh0XzE1Ij4mI3hhOyAgICAgICYjeGE7ICAgICAgPGcgdHJhbnNmb3JtPSJ0cmFuc2xhdGUoMzcuNjI0Mzc1IDE2NC45NzM3ODkpIHNjYWxlKDAuMSAtMC4xKSI+JiN4YTsgICAgICAgPHVzZSB4bGluazpocmVmPSIjRGVqYVZ1U2Fucy0zMCIvPiYjeGE7ICAgICAgIDx1c2UgeD0iNjMuNjIzMDQ3IiB4bGluazpocmVmPSIjRGVqYVZ1U2Fucy0yZSIvPiYjeGE7ICAgICAgIDx1c2UgeD0iOTUuNDEwMTU2IiB4bGluazpocmVmPSIjRGVqYVZ1U2Fucy0zMSIvPiYjeGE7ICAgICAgIDx1c2UgeD0iMTU5LjAzMzIwMyIgeGxpbms6aHJlZj0iI0RlamFWdVNhbnMtMzUiLz4mI3hhOyAgICAgIDwvZz4mI3hhOyAgICAgPC9nPiYjeGE7ICAgIDwvZz4mI3hhOyAgICA8ZyBpZD0ieXRpY2tfOCI+JiN4YTsgICAgIDxnIGlkPSJsaW5lMmRfMjIiPiYjeGE7ICAgICAgPHBhdGggc3R5bGU9ImZpbGw6IG5vbmU7IHN0cm9rZTogI2IwYjBiMDsgc3Ryb2tlLXdpZHRoOiAwLjg7IHN0cm9rZS1saW5lY2FwOiBzcXVhcmUiIGNsaXAtcGF0aD0idXJsKCNwMzNhODQxNDkyMikiIGQ9Ik0gNjYuODkgMTA2LjQ0MTggJiMxMDtMIDg2OC4zMiAxMDYuNDQxOCIvPiYjeGE7ICAgICA8L2c+JiN4YTsgICAgIDxnIGlkPSJsaW5lMmRfMjMiPiYjeGE7ICAgICAgPGc+JiN4YTsgICAgICAgPHVzZSBzdHlsZT0ic3Ryb2tlOiAjMDAwMDAwOyBzdHJva2Utd2lkdGg6IDAuOCIgeT0iMTA2LjQ0MTgiIHg9IjY2Ljg5IiB4bGluazpocmVmPSIjbTBlM2Q0MTk2MGUiLz4mI3hhOyAgICAgIDwvZz4mI3hhOyAgICAgPC9nPiYjeGE7ICAgICA8ZyBpZD0idGV4dF8xNiI+JiN4YTsgICAgICAmI3hhOyAgICAgIDxnIHRyYW5zZm9ybT0idHJhbnNsYXRlKDM3LjYyNDM3NSAxMTAuMjQxMDE5KSBzY2FsZSgwLjEgLTAuMSkiPiYjeGE7ICAgICAgIDx1c2UgeGxpbms6aHJlZj0iI0RlamFWdVNhbnMtMzAiLz4mI3hhOyAgICAgICA8dXNlIHg9IjYzLjYyMzA0NyIgeGxpbms6aHJlZj0iI0RlamFWdVNhbnMtMmUiLz4mI3hhOyAgICAgICA8dXNlIHg9Ijk1LjQxMDE1NiIgeGxpbms6aHJlZj0iI0RlamFWdVNhbnMtMzIiLz4mI3hhOyAgICAgICA8dXNlIHg9IjE1OS4wMzMyMDMiIHhsaW5rOmhyZWY9IiNEZWphVnVTYW5zLTMwIi8+JiN4YTsgICAgICA8L2c+JiN4YTsgICAgIDwvZz4mI3hhOyAgICA8L2c+JiN4YTsgICAgPGcgaWQ9Inl0aWNrXzkiPiYjeGE7ICAgICA8ZyBpZD0ibGluZTJkXzI0Ij4mI3hhOyAgICAgIDxwYXRoIHN0eWxlPSJmaWxsOiBub25lOyBzdHJva2U6ICNiMGIwYjA7IHN0cm9rZS13aWR0aDogMC44OyBzdHJva2UtbGluZWNhcDogc3F1YXJlIiBjbGlwLXBhdGg9InVybCgjcDMzYTg0MTQ5MjIpIiBkPSJNIDY2Ljg5IDUxLjcwOTAzICYjMTA7TCA4NjguMzIgNTEuNzA5MDMiLz4mI3hhOyAgICAgPC9nPiYjeGE7ICAgICA8ZyBpZD0ibGluZTJkXzI1Ij4mI3hhOyAgICAgIDxnPiYjeGE7ICAgICAgIDx1c2Ugc3R5bGU9InN0cm9rZTogIzAwMDAwMDsgc3Ryb2tlLXdpZHRoOiAwLjgiIHk9IjUxLjcwOTAzIiB4PSI2Ni44OSIgeGxpbms6aHJlZj0iI20wZTNkNDE5NjBlIi8+JiN4YTsgICAgICA8L2c+JiN4YTsgICAgIDwvZz4mI3hhOyAgICAgPGcgaWQ9InRleHRfMTciPiYjeGE7ICAgICAgJiN4YTsgICAgICA8ZyB0cmFuc2Zvcm09InRyYW5zbGF0ZSgzNy42MjQzNzUgNTUuNTA4MjQ5KSBzY2FsZSgwLjEgLTAuMSkiPiYjeGE7ICAgICAgIDx1c2UgeGxpbms6aHJlZj0iI0RlamFWdVNhbnMtMzAiLz4mI3hhOyAgICAgICA8dXNlIHg9IjYzLjYyMzA0NyIgeGxpbms6aHJlZj0iI0RlamFWdVNhbnMtMmUiLz4mI3hhOyAgICAgICA8dXNlIHg9Ijk1LjQxMDE1NiIgeGxpbms6aHJlZj0iI0RlamFWdVNhbnMtMzIiLz4mI3hhOyAgICAgICA8dXNlIHg9IjE1OS4wMzMyMDMiIHhsaW5rOmhyZWY9IiNEZWphVnVTYW5zLTM1Ii8+JiN4YTsgICAgICA8L2c+JiN4YTsgICAgIDwvZz4mI3hhOyAgICA8L2c+JiN4YTsgICAgPGcgaWQ9InRleHRfMTgiPiYjeGE7ICAgICAmI3hhOyAgICAgPGcgdHJhbnNmb3JtPSJ0cmFuc2xhdGUoMjIuMTI1MTU2IDMyOS40MDA1NDcpIHJvdGF0ZSgtOTApIHNjYWxlKDAuMTUgLTAuMTUpIj4mI3hhOyAgICAgIDxkZWZzPiYjeGE7ICAgICAgIDxwYXRoIHRyYW5zZm9ybT0ic2NhbGUoMC4wMTU2MjUpIiBkPSJNIDYyOCA0NjY2ICYjMTA7TCAzNTc4IDQ2NjYgJiMxMDtMIDM1NzggNDEzNCAmIzEwO0wgMTI1OSA0MTM0ICYjMTA7TCAxMjU5IDI3NTMgJiMxMDtMIDM0ODEgMjc1MyAmIzEwO0wgMzQ4MSAyMjIyICYjMTA7TCAxMjU5IDIyMjIgJiMxMDtMIDEyNTkgNTMxICYjMTA7TCAzNjM0IDUzMSAmIzEwO0wgMzYzNCAwICYjMTA7TCA2MjggMCAmIzEwO0wgNjI4IDQ2NjYgJiMxMDt6IiBpZD0iRGVqYVZ1U2Fucy00NSIvPiYjeGE7ICAgICAgIDxwYXRoIHRyYW5zZm9ybT0ic2NhbGUoMC4wMTU2MjUpIiBkPSJNIDExNzIgNDQ5NCAmIzEwO0wgMTE3MiAzNTAwICYjMTA7TCAyMzU2IDM1MDAgJiMxMDtMIDIzNTYgMzA1MyAmIzEwO0wgMTE3MiAzMDUzICYjMTA7TCAxMTcyIDExNTMgJiMxMDtRIDExNzIgNzI1IDEyODkgNjAzICYjMTA7USAxNDA2IDQ4MSAxNzY2IDQ4MSAmIzEwO0wgMjM1NiA0ODEgJiMxMDtMIDIzNTYgMCAmIzEwO0wgMTc2NiAwICYjMTA7USAxMTAwIDAgODQ3IDI0OCAmIzEwO1EgNTk0IDQ5NyA1OTQgMTE1MyAmIzEwO0wgNTk0IDMwNTMgJiMxMDtMIDE3MiAzMDUzICYjMTA7TCAxNzIgMzUwMCAmIzEwO0wgNTk0IDM1MDAgJiMxMDtMIDU5NCA0NDk0ICYjMTA7TCAxMTcyIDQ0OTQgJiMxMDt6IiBpZD0iRGVqYVZ1U2Fucy03NCIvPiYjeGE7ICAgICAgIDxwYXRoIHRyYW5zZm9ybT0ic2NhbGUoMC4wMTU2MjUpIiBkPSJNIDE5NTkgMzA5NyAmIzEwO1EgMTQ5NyAzMDk3IDEyMjggMjczNiAmIzEwO1EgOTU5IDIzNzUgOTU5IDE3NDcgJiMxMDtRIDk1OSAxMTE5IDEyMjYgNzU4ICYjMTA7USAxNDk0IDM5NyAxOTU5IDM5NyAmIzEwO1EgMjQxOSAzOTcgMjY4NyA3NTkgJiMxMDtRIDI5NTYgMTEyMiAyOTU2IDE3NDcgJiMxMDtRIDI5NTYgMjM2OSAyNjg3IDI3MzMgJiMxMDtRIDI0MTkgMzA5NyAxOTU5IDMwOTcgJiMxMDt6JiMxMDtNIDE5NTkgMzU4NCAmIzEwO1EgMjcwOSAzNTg0IDMxMzcgMzA5NiAmIzEwO1EgMzU2NiAyNjA5IDM1NjYgMTc0NyAmIzEwO1EgMzU2NiA4ODggMzEzNyAzOTggJiMxMDtRIDI3MDkgLTkxIDE5NTkgLTkxICYjMTA7USAxMjA2IC05MSA3NzkgMzk4ICYjMTA7USAzNTMgODg4IDM1MyAxNzQ3ICYjMTA7USAzNTMgMjYwOSA3NzkgMzA5NiAmIzEwO1EgMTIwNiAzNTg0IDE5NTkgMzU4NCAmIzEwO3oiIGlkPSJEZWphVnVTYW5zLTZmIi8+JiN4YTsgICAgICAgPHBhdGggdHJhbnNmb3JtPSJzY2FsZSgwLjAxNTYyNSkiIGQ9Ik0gMTYwMCA0MzQ3ICYjMTA7USAxMzUwIDQzNDcgMTE3OCA0MTczICYjMTA7USAxMDA2IDQwMDAgMTAwNiAzNzUwICYjMTA7USAxMDA2IDM1MDMgMTE3OCAzMzMzICYjMTA7USAxMzUwIDMxNjMgMTYwMCAzMTYzICYjMTA7USAxODUwIDMxNjMgMjAyMiAzMzMzICYjMTA7USAyMTk0IDM1MDMgMjE5NCAzNzUwICYjMTA7USAyMTk0IDM5OTcgMjAyMCA0MTcyICYjMTA7USAxODQ3IDQzNDcgMTYwMCA0MzQ3ICYjMTA7eiYjMTA7TSAxNjAwIDQ3NTAgJiMxMDtRIDE4MDAgNDc1MCAxOTg0IDQ2NzMgJiMxMDtRIDIxNjkgNDU5NyAyMzAzIDQ0NTMgJiMxMDtRIDI0NDcgNDMxMyAyNTE5IDQxMzQgJiMxMDtRIDI1OTEgMzk1NiAyNTkxIDM3NTAgJiMxMDtRIDI1OTEgMzMzOCAyMzAyIDMwNTIgJiMxMDtRIDIwMTMgMjc2NiAxNTk0IDI3NjYgJiMxMDtRIDExNzIgMjc2NiA4OTAgMzA0NyAmIzEwO1EgNjA5IDMzMjggNjA5IDM3NTAgJiMxMDtRIDYwOSA0MTY5IDg5NiA0NDU5ICYjMTA7USAxMTg0IDQ3NTAgMTYwMCA0NzUwICYjMTA7eiIgaWQ9IkRlamFWdVNhbnMtYjAiLz4mI3hhOyAgICAgIDwvZGVmcz4mI3hhOyAgICAgIDx1c2UgeGxpbms6aHJlZj0iI0RlamFWdVNhbnMtNDUiLz4mI3hhOyAgICAgIDx1c2UgeD0iNjMuMTgzNTk0IiB4bGluazpocmVmPSIjRGVqYVZ1U2Fucy03MyIvPiYjeGE7ICAgICAgPHVzZSB4PSIxMTUuMjgzMjAzIiB4bGluazpocmVmPSIjRGVqYVZ1U2Fucy03NCIvPiYjeGE7ICAgICAgPHVzZSB4PSIxNTQuNDkyMTg4IiB4bGluazpocmVmPSIjRGVqYVZ1U2Fucy02OSIvPiYjeGE7ICAgICAgPHVzZSB4PSIxODIuMjc1MzkxIiB4bGluazpocmVmPSIjRGVqYVZ1U2Fucy02ZCIvPiYjeGE7ICAgICAgPHVzZSB4PSIyNzkuNjg3NSIgeGxpbms6aHJlZj0iI0RlamFWdVNhbnMtNjEiLz4mI3hhOyAgICAgIDx1c2UgeD0iMzQwLjk2Njc5NyIgeGxpbms6aHJlZj0iI0RlamFWdVNhbnMtNzQiLz4mI3hhOyAgICAgIDx1c2UgeD0iMzgwLjE3NTc4MSIgeGxpbms6aHJlZj0iI0RlamFWdVNhbnMtNjkiLz4mI3hhOyAgICAgIDx1c2UgeD0iNDA3Ljk1ODk4NCIgeGxpbms6aHJlZj0iI0RlamFWdVNhbnMtNmYiLz4mI3hhOyAgICAgIDx1c2UgeD0iNDY5LjE0MDYyNSIgeGxpbms6aHJlZj0iI0RlamFWdVNhbnMtNmUiLz4mI3hhOyAgICAgIDx1c2UgeD0iNTMyLjUxOTUzMSIgeGxpbms6aHJlZj0iI0RlamFWdVNhbnMtMjAiLz4mI3hhOyAgICAgIDx1c2UgeD0iNTY0LjMwNjY0MSIgeGxpbms6aHJlZj0iI0RlamFWdVNhbnMtNjUiLz4mI3hhOyAgICAgIDx1c2UgeD0iNjI1LjgzMDA3OCIgeGxpbms6aHJlZj0iI0RlamFWdVNhbnMtNzIiLz4mI3hhOyAgICAgIDx1c2UgeD0iNjY1LjE5MzM1OSIgeGxpbms6aHJlZj0iI0RlamFWdVNhbnMtNzIiLz4mI3hhOyAgICAgIDx1c2UgeD0iNzA0LjA1NjY0MSIgeGxpbms6aHJlZj0iI0RlamFWdVNhbnMtNmYiLz4mI3hhOyAgICAgIDx1c2UgeD0iNzY1LjIzODI4MSIgeGxpbms6aHJlZj0iI0RlamFWdVNhbnMtNzIiLz4mI3hhOyAgICAgIDx1c2UgeD0iODA2LjM1MTU2MiIgeGxpbms6aHJlZj0iI0RlamFWdVNhbnMtMjAiLz4mI3hhOyAgICAgIDx1c2UgeD0iODM4LjEzODY3MiIgeGxpbms6aHJlZj0iI0RlamFWdVNhbnMtNWIiLz4mI3hhOyAgICAgIDx1c2UgeD0iODc3LjE1MjM0NCIgeGxpbms6aHJlZj0iI0RlamFWdVNhbnMtYjAiLz4mI3hhOyAgICAgIDx1c2UgeD0iOTI3LjE1MjM0NCIgeGxpbms6aHJlZj0iI0RlamFWdVNhbnMtNWQiLz4mI3hhOyAgICAgPC9nPiYjeGE7ICAgIDwvZz4mI3hhOyAgIDwvZz4mI3hhOyAgIDxnIGlkPSJMaW5lQ29sbGVjdGlvbl8xIj4mI3hhOyAgICA8cGF0aCBzdHlsZT0iZmlsbDogbm9uZTsgc3Ryb2tlOiAjNDQwMTU0OyBzdHJva2Utd2lkdGg6IDEuNSIgY2xpcC1wYXRoPSJ1cmwoI3AzM2E4NDE0OTIyKSIgZD0iTSAxMDMuMzE4NjM2IDM3MC40MjUxNTkgJiMxMDtMIDEwMy4zMTg2MzYgMjY2LjIwMTcxMSIvPiYjeGE7ICAgIDxwYXRoIHN0eWxlPSJmaWxsOiBub25lOyBzdHJva2U6ICM0NDAxNTQ7IHN0cm9rZS13aWR0aDogMS41IiBjbGlwLXBhdGg9InVybCgjcDMzYTg0MTQ5MjIpIiBkPSJNIDIyMC44MzAzNjcgNDgwLjcwMzYzNiAmIzEwO0wgMjIwLjgzMDM2NyAxNDIuMjE3MTI2Ii8+JiN4YTsgICAgPHBhdGggc3R5bGU9ImZpbGw6IG5vbmU7IHN0cm9rZTogIzQ0MDE1NDsgc3Ryb2tlLXdpZHRoOiAxLjUiIGNsaXAtcGF0aD0idXJsKCNwMzNhODQxNDkyMikiIGQ9Ik0gMzM4LjM0MjA5NyAzNjkuMjAzODgxICYjMTA7TCAzMzguMzQyMDk3IDI3MC4yMzUxMDQiLz4mI3hhOyAgICA8cGF0aCBzdHlsZT0iZmlsbDogbm9uZTsgc3Ryb2tlOiAjNDQwMTU0OyBzdHJva2Utd2lkdGg6IDEuNSIgY2xpcC1wYXRoPSJ1cmwoI3AzM2E4NDE0OTIyKSIgZD0iTSA0NTUuODUzODI3IDMyNS45MDMwNDQgJiMxMDtMIDQ1NS44NTM4MjcgMzE4LjkwMDQxNiIvPiYjeGE7ICAgIDxwYXRoIHN0eWxlPSJmaWxsOiBub25lOyBzdHJva2U6ICM0NDAxNTQ7IHN0cm9rZS13aWR0aDogMS41IiBjbGlwLXBhdGg9InVybCgjcDMzYTg0MTQ5MjIpIiBkPSJNIDU3My4zNjU1NTcgMzQ5LjQ1NjQzNyAmIzEwO0wgNTczLjM2NTU1NyAyODguODQyNjg0Ii8+JiN4YTsgICAgPHBhdGggc3R5bGU9ImZpbGw6IG5vbmU7IHN0cm9rZTogIzQ0MDE1NDsgc3Ryb2tlLXdpZHRoOiAxLjUiIGNsaXAtcGF0aD0idXJsKCNwMzNhODQxNDkyMikiIGQ9Ik0gNjkwLjg3NzI4NyA0NzkuOTUyOTc0ICYjMTA7TCA2OTAuODc3Mjg3IDgyLjcyOTQ5NSIvPiYjeGE7ICAgIDxwYXRoIHN0eWxlPSJmaWxsOiBub25lOyBzdHJva2U6ICM0NDAxNTQ7IHN0cm9rZS13aWR0aDogMS41IiBjbGlwLXBhdGg9InVybCgjcDMzYTg0MTQ5MjIpIiBkPSJNIDgwOC4zODkwMTggMzcxLjc1NzgzMyAmIzEwO0wgODA4LjM4OTAxOCAyNTAuMDUxOTY1Ii8+JiN4YTsgICA8L2c+JiN4YTsgICA8ZyBpZD0ibGluZTJkXzI2Ij4mI3hhOyAgICA8ZGVmcz4mI3hhOyAgICAgPHBhdGggc3R5bGU9InN0cm9rZTogIzQ0MDE1NCIgZD0iTSA0IDAgJiMxMDtMIC00IC0wIiBpZD0ibWM1ZjJmZjVhN2IiLz4mI3hhOyAgICA8L2RlZnM+JiN4YTsgICAgPGcgY2xpcC1wYXRoPSJ1cmwoI3AzM2E4NDE0OTIyKSI+JiN4YTsgICAgIDx1c2Ugc3R5bGU9ImZpbGw6ICM0NDAxNTQ7IHN0cm9rZTogIzQ0MDE1NCIgeT0iMzcwLjQyNTE1OSIgeD0iMTAzLjMxODYzNiIgeGxpbms6aHJlZj0iI21jNWYyZmY1YTdiIi8+JiN4YTsgICAgIDx1c2Ugc3R5bGU9ImZpbGw6ICM0NDAxNTQ7IHN0cm9rZTogIzQ0MDE1NCIgeT0iNDgwLjcwMzYzNiIgeD0iMjIwLjgzMDM2NyIgeGxpbms6aHJlZj0iI21jNWYyZmY1YTdiIi8+JiN4YTsgICAgIDx1c2Ugc3R5bGU9ImZpbGw6ICM0NDAxNTQ7IHN0cm9rZTogIzQ0MDE1NCIgeT0iMzY5LjIwMzg4MSIgeD0iMzM4LjM0MjA5NyIgeGxpbms6aHJlZj0iI21jNWYyZmY1YTdiIi8+JiN4YTsgICAgIDx1c2Ugc3R5bGU9ImZpbGw6ICM0NDAxNTQ7IHN0cm9rZTogIzQ0MDE1NCIgeT0iMzI1LjkwMzA0NCIgeD0iNDU1Ljg1MzgyNyIgeGxpbms6aHJlZj0iI21jNWYyZmY1YTdiIi8+JiN4YTsgICAgIDx1c2Ugc3R5bGU9ImZpbGw6ICM0NDAxNTQ7IHN0cm9rZTogIzQ0MDE1NCIgeT0iMzQ5LjQ1NjQzNyIgeD0iNTczLjM2NTU1NyIgeGxpbms6aHJlZj0iI21jNWYyZmY1YTdiIi8+JiN4YTsgICAgIDx1c2Ugc3R5bGU9ImZpbGw6ICM0NDAxNTQ7IHN0cm9rZTogIzQ0MDE1NCIgeT0iNDc5Ljk1Mjk3NCIgeD0iNjkwLjg3NzI4NyIgeGxpbms6aHJlZj0iI21jNWYyZmY1YTdiIi8+JiN4YTsgICAgIDx1c2Ugc3R5bGU9ImZpbGw6ICM0NDAxNTQ7IHN0cm9rZTogIzQ0MDE1NCIgeT0iMzcxLjc1NzgzMyIgeD0iODA4LjM4OTAxOCIgeGxpbms6aHJlZj0iI21jNWYyZmY1YTdiIi8+JiN4YTsgICAgPC9nPiYjeGE7ICAgPC9nPiYjeGE7ICAgPGcgaWQ9ImxpbmUyZF8yNyI+JiN4YTsgICAgPGcgY2xpcC1wYXRoPSJ1cmwoI3AzM2E4NDE0OTIyKSI+JiN4YTsgICAgIDx1c2Ugc3R5bGU9ImZpbGw6ICM0NDAxNTQ7IHN0cm9rZTogIzQ0MDE1NCIgeT0iMjY2LjIwMTcxMSIgeD0iMTAzLjMxODYzNiIgeGxpbms6aHJlZj0iI21jNWYyZmY1YTdiIi8+JiN4YTsgICAgIDx1c2Ugc3R5bGU9ImZpbGw6ICM0NDAxNTQ7IHN0cm9rZTogIzQ0MDE1NCIgeT0iMTQyLjIxNzEyNiIgeD0iMjIwLjgzMDM2NyIgeGxpbms6aHJlZj0iI21jNWYyZmY1YTdiIi8+JiN4YTsgICAgIDx1c2Ugc3R5bGU9ImZpbGw6ICM0NDAxNTQ7IHN0cm9rZTogIzQ0MDE1NCIgeT0iMjcwLjIzNTEwNCIgeD0iMzM4LjM0MjA5NyIgeGxpbms6aHJlZj0iI21jNWYyZmY1YTdiIi8+JiN4YTsgICAgIDx1c2Ugc3R5bGU9ImZpbGw6ICM0NDAxNTQ7IHN0cm9rZTogIzQ0MDE1NCIgeT0iMzE4LjkwMDQxNiIgeD0iNDU1Ljg1MzgyNyIgeGxpbms6aHJlZj0iI21jNWYyZmY1YTdiIi8+JiN4YTsgICAgIDx1c2Ugc3R5bGU9ImZpbGw6ICM0NDAxNTQ7IHN0cm9rZTogIzQ0MDE1NCIgeT0iMjg4Ljg0MjY4NCIgeD0iNTczLjM2NTU1NyIgeGxpbms6aHJlZj0iI21jNWYyZmY1YTdiIi8+JiN4YTsgICAgIDx1c2Ugc3R5bGU9ImZpbGw6ICM0NDAxNTQ7IHN0cm9rZTogIzQ0MDE1NCIgeT0iODIuNzI5NDk1IiB4PSI2OTAuODc3Mjg3IiB4bGluazpocmVmPSIjbWM1ZjJmZjVhN2IiLz4mI3hhOyAgICAgPHVzZSBzdHlsZT0iZmlsbDogIzQ0MDE1NDsgc3Ryb2tlOiAjNDQwMTU0IiB5PSIyNTAuMDUxOTY1IiB4PSI4MDguMzg5MDE4IiB4bGluazpocmVmPSIjbWM1ZjJmZjVhN2IiLz4mI3hhOyAgICA8L2c+JiN4YTsgICA8L2c+JiN4YTsgICA8ZyBpZD0iTGluZUNvbGxlY3Rpb25fMiI+JiN4YTsgICAgPHBhdGggc3R5bGU9ImZpbGw6IG5vbmU7IHN0cm9rZTogIzIxOTE4Yzsgc3Ryb2tlLXdpZHRoOiAxLjUiIGNsaXAtcGF0aD0idXJsKCNwMzNhODQxNDkyMikiIGQ9Ik0gMTI2LjgyMDk4MiAzNjAuNTQ1ODk1ICYjMTA7TCAxMjYuODIwOTgyIDI1Mi43NDI2NDUiLz4mI3hhOyAgICA8cGF0aCBzdHlsZT0iZmlsbDogbm9uZTsgc3Ryb2tlOiAjMjE5MThjOyBzdHJva2Utd2lkdGg6IDEuNSIgY2xpcC1wYXRoPSJ1cmwoI3AzM2E4NDE0OTIyKSIgZD0iTSAyNDQuMzMyNzEzIDQ3MC4xNDIzMjIgJiMxMDtMIDI0NC4zMzI3MTMgMTMwLjI1OTc4OSIvPiYjeGE7ICAgIDxwYXRoIHN0eWxlPSJmaWxsOiBub25lOyBzdHJva2U6ICMyMTkxOGM7IHN0cm9rZS13aWR0aDogMS41IiBjbGlwLXBhdGg9InVybCgjcDMzYTg0MTQ5MjIpIiBkPSJNIDM2MS44NDQ0NDMgMzU4LjUyOTc3OCAmIzEwO0wgMzYxLjg0NDQ0MyAyNTEuNTg1OTM1Ii8+JiN4YTsgICAgPHBhdGggc3R5bGU9ImZpbGw6IG5vbmU7IHN0cm9rZTogIzIxOTE4Yzsgc3Ryb2tlLXdpZHRoOiAxLjUiIGNsaXAtcGF0aD0idXJsKCNwMzNhODQxNDkyMikiIGQ9Ik0gNDc5LjM1NjE3MyAzMjkuNDQyMTk1ICYjMTA7TCA0NzkuMzU2MTczIDI3Ni4zNjU5MTciLz4mI3hhOyAgICA8cGF0aCBzdHlsZT0iZmlsbDogbm9uZTsgc3Ryb2tlOiAjMjE5MThjOyBzdHJva2Utd2lkdGg6IDEuNSIgY2xpcC1wYXRoPSJ1cmwoI3AzM2E4NDE0OTIyKSIgZD0iTSA1OTYuODY3OTAzIDMzMS45ODE3MjUgJiMxMDtMIDU5Ni44Njc5MDMgMjU1LjU4OTU0NyIvPiYjeGE7ICAgIDxwYXRoIHN0eWxlPSJmaWxsOiBub25lOyBzdHJva2U6ICMyMTkxOGM7IHN0cm9rZS13aWR0aDogMS41IiBjbGlwLXBhdGg9InVybCgjcDMzYTg0MTQ5MjIpIiBkPSJNIDcxNC4zNzk2MzMgNDU5LjUzOTg2MyAmIzEwO0wgNzE0LjM3OTYzMyAzMy4xNzYzNjQiLz4mI3hhOyAgICA8cGF0aCBzdHlsZT0iZmlsbDogbm9uZTsgc3Ryb2tlOiAjMjE5MThjOyBzdHJva2Utd2lkdGg6IDEuNSIgY2xpcC1wYXRoPSJ1cmwoI3AzM2E4NDE0OTIyKSIgZD0iTSA4MzEuODkxMzY0IDM2NS43NTA0NzMgJiMxMDtMIDgzMS44OTEzNjQgMTMzLjAyNDU2MiIvPiYjeGE7ICAgPC9nPiYjeGE7ICAgPGcgaWQ9ImxpbmUyZF8yOCI+JiN4YTsgICAgPGRlZnM+JiN4YTsgICAgIDxwYXRoIHN0eWxlPSJzdHJva2U6ICMyMTkxOGMiIGQ9Ik0gNCAwICYjMTA7TCAtNCAtMCIgaWQ9Im05MTE0N2I0NjJkIi8+JiN4YTsgICAgPC9kZWZzPiYjeGE7ICAgIDxnIGNsaXAtcGF0aD0idXJsKCNwMzNhODQxNDkyMikiPiYjeGE7ICAgICA8dXNlIHN0eWxlPSJmaWxsOiAjMjE5MThjOyBzdHJva2U6ICMyMTkxOGMiIHk9IjM2MC41NDU4OTUiIHg9IjEyNi44MjA5ODIiIHhsaW5rOmhyZWY9IiNtOTExNDdiNDYyZCIvPiYjeGE7ICAgICA8dXNlIHN0eWxlPSJmaWxsOiAjMjE5MThjOyBzdHJva2U6ICMyMTkxOGMiIHk9IjQ3MC4xNDIzMjIiIHg9IjI0NC4zMzI3MTMiIHhsaW5rOmhyZWY9IiNtOTExNDdiNDYyZCIvPiYjeGE7ICAgICA8dXNlIHN0eWxlPSJmaWxsOiAjMjE5MThjOyBzdHJva2U6ICMyMTkxOGMiIHk9IjM1OC41Mjk3NzgiIHg9IjM2MS44NDQ0NDMiIHhsaW5rOmhyZWY9IiNtOTExNDdiNDYyZCIvPiYjeGE7ICAgICA8dXNlIHN0eWxlPSJmaWxsOiAjMjE5MThjOyBzdHJva2U6ICMyMTkxOGMiIHk9IjMyOS40NDIxOTUiIHg9IjQ3OS4zNTYxNzMiIHhsaW5rOmhyZWY9IiNtOTExNDdiNDYyZCIvPiYjeGE7ICAgICA8dXNlIHN0eWxlPSJmaWxsOiAjMjE5MThjOyBzdHJva2U6ICMyMTkxOGMiIHk9IjMzMS45ODE3MjUiIHg9IjU5Ni44Njc5MDMiIHhsaW5rOmhyZWY9IiNtOTExNDdiNDYyZCIvPiYjeGE7ICAgICA8dXNlIHN0eWxlPSJmaWxsOiAjMjE5MThjOyBzdHJva2U6ICMyMTkxOGMiIHk9IjQ1OS41Mzk4NjMiIHg9IjcxNC4zNzk2MzMiIHhsaW5rOmhyZWY9IiNtOTExNDdiNDYyZCIvPiYjeGE7ICAgICA8dXNlIHN0eWxlPSJmaWxsOiAjMjE5MThjOyBzdHJva2U6ICMyMTkxOGMiIHk9IjM2NS43NTA0NzMiIHg9IjgzMS44OTEzNjQiIHhsaW5rOmhyZWY9IiNtOTExNDdiNDYyZCIvPiYjeGE7ICAgIDwvZz4mI3hhOyAgIDwvZz4mI3hhOyAgIDxnIGlkPSJsaW5lMmRfMjkiPiYjeGE7ICAgIDxnIGNsaXAtcGF0aD0idXJsKCNwMzNhODQxNDkyMikiPiYjeGE7ICAgICA8dXNlIHN0eWxlPSJmaWxsOiAjMjE5MThjOyBzdHJva2U6ICMyMTkxOGMiIHk9IjI1Mi43NDI2NDUiIHg9IjEyNi44MjA5ODIiIHhsaW5rOmhyZWY9IiNtOTExNDdiNDYyZCIvPiYjeGE7ICAgICA8dXNlIHN0eWxlPSJmaWxsOiAjMjE5MThjOyBzdHJva2U6ICMyMTkxOGMiIHk9IjEzMC4yNTk3ODkiIHg9IjI0NC4zMzI3MTMiIHhsaW5rOmhyZWY9IiNtOTExNDdiNDYyZCIvPiYjeGE7ICAgICA8dXNlIHN0eWxlPSJmaWxsOiAjMjE5MThjOyBzdHJva2U6ICMyMTkxOGMiIHk9IjI1MS41ODU5MzUiIHg9IjM2MS44NDQ0NDMiIHhsaW5rOmhyZWY9IiNtOTExNDdiNDYyZCIvPiYjeGE7ICAgICA8dXNlIHN0eWxlPSJmaWxsOiAjMjE5MThjOyBzdHJva2U6ICMyMTkxOGMiIHk9IjI3Ni4zNjU5MTciIHg9IjQ3OS4zNTYxNzMiIHhsaW5rOmhyZWY9IiNtOTExNDdiNDYyZCIvPiYjeGE7ICAgICA8dXNlIHN0eWxlPSJmaWxsOiAjMjE5MThjOyBzdHJva2U6ICMyMTkxOGMiIHk9IjI1NS41ODk1NDciIHg9IjU5Ni44Njc5MDMiIHhsaW5rOmhyZWY9IiNtOTExNDdiNDYyZCIvPiYjeGE7ICAgICA8dXNlIHN0eWxlPSJmaWxsOiAjMjE5MThjOyBzdHJva2U6ICMyMTkxOGMiIHk9IjMzLjE3NjM2NCIgeD0iNzE0LjM3OTYzMyIgeGxpbms6aHJlZj0iI205MTE0N2I0NjJkIi8+JiN4YTsgICAgIDx1c2Ugc3R5bGU9ImZpbGw6ICMyMTkxOGM7IHN0cm9rZTogIzIxOTE4YyIgeT0iMTMzLjAyNDU2MiIgeD0iODMxLjg5MTM2NCIgeGxpbms6aHJlZj0iI205MTE0N2I0NjJkIi8+JiN4YTsgICAgPC9nPiYjeGE7ICAgPC9nPiYjeGE7ICAgPGcgaWQ9ImxpbmUyZF8zMCIvPiYjeGE7ICAgPGcgaWQ9ImxpbmUyZF8zMSIvPiYjeGE7ICAgPGcgaWQ9InBhdGNoXzMiPiYjeGE7ICAgIDxwYXRoIHN0eWxlPSJmaWxsOiBub25lOyBzdHJva2U6ICMwMDAwMDA7IHN0cm9rZS13aWR0aDogMC44OyBzdHJva2UtbGluZWpvaW46IG1pdGVyOyBzdHJva2UtbGluZWNhcDogc3F1YXJlIiBkPSJNIDY2Ljg5IDUwMy4wOCAmIzEwO0wgNjYuODkgMTAuOCIvPiYjeGE7ICAgPC9nPiYjeGE7ICAgPGcgaWQ9InBhdGNoXzQiPiYjeGE7ICAgIDxwYXRoIHN0eWxlPSJmaWxsOiBub25lOyBzdHJva2U6ICMwMDAwMDA7IHN0cm9rZS13aWR0aDogMC44OyBzdHJva2UtbGluZWpvaW46IG1pdGVyOyBzdHJva2UtbGluZWNhcDogc3F1YXJlIiBkPSJNIDg2OC4zMiA1MDMuMDggJiMxMDtMIDg2OC4zMiAxMC44Ii8+JiN4YTsgICA8L2c+JiN4YTsgICA8ZyBpZD0icGF0Y2hfNSI+JiN4YTsgICAgPHBhdGggc3R5bGU9ImZpbGw6IG5vbmU7IHN0cm9rZTogIzAwMDAwMDsgc3Ryb2tlLXdpZHRoOiAwLjg7IHN0cm9rZS1saW5lam9pbjogbWl0ZXI7IHN0cm9rZS1saW5lY2FwOiBzcXVhcmUiIGQ9Ik0gNjYuODkgNTAzLjA4ICYjMTA7TCA4NjguMzIgNTAzLjA4Ii8+JiN4YTsgICA8L2c+JiN4YTsgICA8ZyBpZD0icGF0Y2hfNiI+JiN4YTsgICAgPHBhdGggc3R5bGU9ImZpbGw6IG5vbmU7IHN0cm9rZTogIzAwMDAwMDsgc3Ryb2tlLXdpZHRoOiAwLjg7IHN0cm9rZS1saW5lam9pbjogbWl0ZXI7IHN0cm9rZS1saW5lY2FwOiBzcXVhcmUiIGQ9Ik0gNjYuODkgMTAuOCAmIzEwO0wgODY4LjMyIDEwLjgiLz4mI3hhOyAgIDwvZz4mI3hhOyAgIDxnIGlkPSJsZWdlbmRfMSI+JiN4YTsgICAgPGcgaWQ9InBhdGNoXzciPiYjeGE7ICAgICA8cGF0aCBzdHlsZT0iZmlsbDogI2ZmZmZmZjsgb3BhY2l0eTogMC44OyBzdHJva2U6ICNjY2NjY2M7IHN0cm9rZS1saW5lam9pbjogbWl0ZXIiIGQ9Ik0gNzMuODkgNjIuODM0Mzc1ICYjMTA7TCAyMTAuNTYwMzEzIDYyLjgzNDM3NSAmIzEwO1EgMjEyLjU2MDMxMyA2Mi44MzQzNzUgMjEyLjU2MDMxMyA2MC44MzQzNzUgJiMxMDtMIDIxMi41NjAzMTMgMTcuOCAmIzEwO1EgMjEyLjU2MDMxMyAxNS44IDIxMC41NjAzMTMgMTUuOCAmIzEwO0wgNzMuODkgMTUuOCAmIzEwO1EgNzEuODkgMTUuOCA3MS44OSAxNy44ICYjMTA7TCA3MS44OSA2MC44MzQzNzUgJiMxMDtRIDcxLjg5IDYyLjgzNDM3NSA3My44OSA2Mi44MzQzNzUgJiMxMDt6Ii8+JiN4YTsgICAgPC9nPiYjeGE7ICAgIDxnIGlkPSJ0ZXh0XzE5Ij4mI3hhOyAgICAgJiN4YTsgICAgIDxnIHRyYW5zZm9ybT0idHJhbnNsYXRlKDc1Ljg5IDI3LjM5ODQzOCkgc2NhbGUoMC4xIC0wLjEpIj4mI3hhOyAgICAgIDxkZWZzPiYjeGE7ICAgICAgIDxwYXRoIHRyYW5zZm9ybT0ic2NhbGUoMC4wMTU2MjUpIiBkPSJNIDYwMyA0ODYzICYjMTA7TCAxMTc4IDQ4NjMgJiMxMDtMIDExNzggMCAmIzEwO0wgNjAzIDAgJiMxMDtMIDYwMyA0ODYzICYjMTA7eiIgaWQ9IkRlamFWdVNhbnMtNmMiLz4mI3hhOyAgICAgICA8cGF0aCB0cmFuc2Zvcm09InNjYWxlKDAuMDE1NjI1KSIgZD0iTSAtMTkgNDY2NiAmIzEwO0wgMzkyOCA0NjY2ICYjMTA7TCAzOTI4IDQxMzQgJiMxMDtMIDIyNzIgNDEzNCAmIzEwO0wgMjI3MiAwICYjMTA7TCAxNjM4IDAgJiMxMDtMIDE2MzggNDEzNCAmIzEwO0wgLTE5IDQxMzQgJiMxMDtMIC0xOSA0NjY2ICYjMTA7eiIgaWQ9IkRlamFWdVNhbnMtNTQiLz4mI3hhOyAgICAgICA8cGF0aCB0cmFuc2Zvcm09InNjYWxlKDAuMDE1NjI1KSIgZD0iTSAxNjI1IDQ2NjYgJiMxMDtMIDIxNTYgNDY2NiAmIzEwO0wgNTMxIC01OTQgJiMxMDtMIDAgLTU5NCAmIzEwO0wgMTYyNSA0NjY2ICYjMTA7eiIgaWQ9IkRlamFWdVNhbnMtMmYiLz4mI3hhOyAgICAgICA8cGF0aCB0cmFuc2Zvcm09InNjYWxlKDAuMDE1NjI1KSIgZD0iTSA2MjggNDY2NiAmIzEwO0wgMTI1OSA0NjY2ICYjMTA7TCAxMjU5IDUzMSAmIzEwO0wgMzUzMSA1MzEgJiMxMDtMIDM1MzEgMCAmIzEwO0wgNjI4IDAgJiMxMDtMIDYyOCA0NjY2ICYjMTA7eiIgaWQ9IkRlamFWdVNhbnMtNGMiLz4mI3hhOyAgICAgICA8cGF0aCB0cmFuc2Zvcm09InNjYWxlKDAuMDE1NjI1KSIgZD0iTSAxMjU5IDIyMjggJiMxMDtMIDEyNTkgNTE5ICYjMTA7TCAyMjcyIDUxOSAmIzEwO1EgMjc4MSA1MTkgMzAyNiA3MzAgJiMxMDtRIDMyNzIgOTQxIDMyNzIgMTM3NSAmIzEwO1EgMzI3MiAxODEzIDMwMjYgMjAyMCAmIzEwO1EgMjc4MSAyMjI4IDIyNzIgMjIyOCAmIzEwO0wgMTI1OSAyMjI4ICYjMTA7eiYjMTA7TSAxMjU5IDQxNDcgJiMxMDtMIDEyNTkgMjc0MSAmIzEwO0wgMjE5NCAyNzQxICYjMTA7USAyNjU2IDI3NDEgMjg4MiAyOTE0ICYjMTA7USAzMTA5IDMwODggMzEwOSAzNDQ0ICYjMTA7USAzMTA5IDM3OTcgMjg4MiAzOTcyICYjMTA7USAyNjU2IDQxNDcgMjE5NCA0MTQ3ICYjMTA7TCAxMjU5IDQxNDcgJiMxMDt6JiMxMDtNIDYyOCA0NjY2ICYjMTA7TCAyMjQxIDQ2NjYgJiMxMDtRIDI5NjMgNDY2NiAzMzUzIDQzNjYgJiMxMDtRIDM3NDQgNDA2NiAzNzQ0IDM1MTMgJiMxMDtRIDM3NDQgMzA4NCAzNTQ0IDI4MzEgJiMxMDtRIDMzNDQgMjU3OCAyOTU2IDI1MTYgJiMxMDtRIDM0MjIgMjQxNiAzNjgwIDIwOTggJiMxMDtRIDM5MzggMTc4MSAzOTM4IDEzMDYgJiMxMDtRIDM5MzggNjgxIDM1MTMgMzQwICYjMTA7USAzMDg4IDAgMjMwMyAwICYjMTA7TCA2MjggMCAmIzEwO0wgNjI4IDQ2NjYgJiMxMDt6IiBpZD0iRGVqYVZ1U2Fucy00MiIvPiYjeGE7ICAgICAgPC9kZWZzPiYjeGE7ICAgICAgPHVzZSB4bGluazpocmVmPSIjRGVqYVZ1U2Fucy01MyIvPiYjeGE7ICAgICAgPHVzZSB4PSI2My40NzY1NjIiIHhsaW5rOmhyZWY9IiNEZWphVnVTYW5zLTY1Ii8+JiN4YTsgICAgICA8dXNlIHg9IjEyNSIgeGxpbms6aHJlZj0iI0RlamFWdVNhbnMtNmUiLz4mI3hhOyAgICAgIDx1c2UgeD0iMTg4LjM3ODkwNiIgeGxpbms6aHJlZj0iI0RlamFWdVNhbnMtNzMiLz4mI3hhOyAgICAgIDx1c2UgeD0iMjQwLjQ3ODUxNiIgeGxpbms6aHJlZj0iI0RlamFWdVNhbnMtNmYiLz4mI3hhOyAgICAgIDx1c2UgeD0iMzAxLjY2MDE1NiIgeGxpbms6aHJlZj0iI0RlamFWdVNhbnMtNzIiLz4mI3hhOyAgICAgIDx1c2UgeD0iMzQyLjc3MzQzOCIgeGxpbms6aHJlZj0iI0RlamFWdVNhbnMtMjAiLz4mI3hhOyAgICAgIDx1c2UgeD0iMzc0LjU2MDU0NyIgeGxpbms6aHJlZj0iI0RlamFWdVNhbnMtNzIiLz4mI3hhOyAgICAgIDx1c2UgeD0iNDEzLjQyMzgyOCIgeGxpbms6aHJlZj0iI0RlamFWdVNhbnMtNjUiLz4mI3hhOyAgICAgIDx1c2UgeD0iNDc0Ljk0NzI2NiIgeGxpbms6aHJlZj0iI0RlamFWdVNhbnMtNzMiLz4mI3hhOyAgICAgIDx1c2UgeD0iNTI3LjA0Njg3NSIgeGxpbms6aHJlZj0iI0RlamFWdVNhbnMtNmYiLz4mI3hhOyAgICAgIDx1c2UgeD0iNTg4LjIyODUxNiIgeGxpbms6aHJlZj0iI0RlamFWdVNhbnMtNmMiLz4mI3hhOyAgICAgIDx1c2UgeD0iNjE2LjAxMTcxOSIgeGxpbms6aHJlZj0iI0RlamFWdVNhbnMtNzUiLz4mI3hhOyAgICAgIDx1c2UgeD0iNjc5LjM5MDYyNSIgeGxpbms6aHJlZj0iI0RlamFWdVNhbnMtNzQiLz4mI3hhOyAgICAgIDx1c2UgeD0iNzE4LjU5OTYwOSIgeGxpbms6aHJlZj0iI0RlamFWdVNhbnMtNjkiLz4mI3hhOyAgICAgIDx1c2UgeD0iNzQ2LjM4MjgxMiIgeGxpbms6aHJlZj0iI0RlamFWdVNhbnMtNmYiLz4mI3hhOyAgICAgIDx1c2UgeD0iODA3LjU2NDQ1MyIgeGxpbms6aHJlZj0iI0RlamFWdVNhbnMtNmUiLz4mI3hhOyAgICAgIDx1c2UgeD0iODcwLjk0MzM1OSIgeGxpbms6aHJlZj0iI0RlamFWdVNhbnMtMjAiLz4mI3hhOyAgICAgIDx1c2UgeD0iOTAyLjczMDQ2OSIgeGxpbms6aHJlZj0iI0RlamFWdVNhbnMtNWIiLz4mI3hhOyAgICAgIDx1c2UgeD0iOTQxLjc0NDE0MSIgeGxpbms6aHJlZj0iI0RlamFWdVNhbnMtNzUiLz4mI3hhOyAgICAgIDx1c2UgeD0iMTAwNS4xMjMwNDciIHhsaW5rOmhyZWY9IiNEZWphVnVTYW5zLTU0Ii8+JiN4YTsgICAgICA8dXNlIHg9IjEwNjYuMjA3MDMxIiB4bGluazpocmVmPSIjRGVqYVZ1U2Fucy0yZiIvPiYjeGE7ICAgICAgPHVzZSB4PSIxMDk5Ljg5ODQzOCIgeGxpbms6aHJlZj0iI0RlamFWdVNhbnMtNGMiLz4mI3hhOyAgICAgIDx1c2UgeD0iMTE1NS42MTEzMjgiIHhsaW5rOmhyZWY9IiNEZWphVnVTYW5zLTUzIi8+JiN4YTsgICAgICA8dXNlIHg9IjEyMTkuMDg3ODkxIiB4bGluazpocmVmPSIjRGVqYVZ1U2Fucy00MiIvPiYjeGE7ICAgICAgPHVzZSB4PSIxMjg3LjY5MTQwNiIgeGxpbms6aHJlZj0iI0RlamFWdVNhbnMtNWQiLz4mI3hhOyAgICAgPC9nPiYjeGE7ICAgIDwvZz4mI3hhOyAgICA8ZyBpZD0icGF0Y2hfOCI+JiN4YTsgICAgIDxwYXRoIHN0eWxlPSJmaWxsOiAjNDQwMTU0OyBzdHJva2U6ICM0NDAxNTQ7IHN0cm9rZS1saW5lam9pbjogbWl0ZXIiIGQ9Ik0gMTE3LjA5MjM0NCA0Mi4wNzY1NjMgJiMxMDtMIDEzNy4wOTIzNDQgNDIuMDc2NTYzICYjMTA7TCAxMzcuMDkyMzQ0IDM1LjA3NjU2MyAmIzEwO0wgMTE3LjA5MjM0NCAzNS4wNzY1NjMgJiMxMDt6Ii8+JiN4YTsgICAgPC9nPiYjeGE7ICAgIDxnIGlkPSJ0ZXh0XzIwIj4mI3hhOyAgICAgJiN4YTsgICAgIDxnIHRyYW5zZm9ybT0idHJhbnNsYXRlKDE0NS4wOTIzNDQgNDIuMDc2NTYzKSBzY2FsZSgwLjEgLTAuMSkiPiYjeGE7ICAgICAgPHVzZSB4bGluazpocmVmPSIjRGVqYVZ1U2Fucy0zMCIvPiYjeGE7ICAgICAgPHVzZSB4PSI2My42MjMwNDciIHhsaW5rOmhyZWY9IiNEZWphVnVTYW5zLTJlIi8+JiN4YTsgICAgICA8dXNlIHg9Ijk1LjQxMDE1NiIgeGxpbms6aHJlZj0iI0RlamFWdVNhbnMtMzEiLz4mI3hhOyAgICAgIDx1c2UgeD0iMTU5LjAzMzIwMyIgeGxpbms6aHJlZj0iI0RlamFWdVNhbnMtMzUiLz4mI3hhOyAgICAgPC9nPiYjeGE7ICAgIDwvZz4mI3hhOyAgICA8ZyBpZD0icGF0Y2hfOSI+JiN4YTsgICAgIDxwYXRoIHN0eWxlPSJmaWxsOiAjMjE5MThjOyBzdHJva2U6ICMyMTkxOGM7IHN0cm9rZS1saW5lam9pbjogbWl0ZXIiIGQ9Ik0gMTE3LjA5MjM0NCA1Ni43NTQ2ODggJiMxMDtMIDEzNy4wOTIzNDQgNTYuNzU0Njg4ICYjMTA7TCAxMzcuMDkyMzQ0IDQ5Ljc1NDY4OCAmIzEwO0wgMTE3LjA5MjM0NCA0OS43NTQ2ODggJiMxMDt6Ii8+JiN4YTsgICAgPC9nPiYjeGE7ICAgIDxnIGlkPSJ0ZXh0XzIxIj4mI3hhOyAgICAgJiN4YTsgICAgIDxnIHRyYW5zZm9ybT0idHJhbnNsYXRlKDE0NS4wOTIzNDQgNTYuNzU0Njg4KSBzY2FsZSgwLjEgLTAuMSkiPiYjeGE7ICAgICAgPHVzZSB4bGluazpocmVmPSIjRGVqYVZ1U2Fucy0zMSIvPiYjeGE7ICAgICAgPHVzZSB4PSI2My42MjMwNDciIHhsaW5rOmhyZWY9IiNEZWphVnVTYW5zLTJlIi8+JiN4YTsgICAgICA8dXNlIHg9Ijk1LjQxMDE1NiIgeGxpbms6aHJlZj0iI0RlamFWdVNhbnMtMzEiLz4mI3hhOyAgICAgPC9nPiYjeGE7ICAgIDwvZz4mI3hhOyAgIDwvZz4mI3hhOyAgPC9nPiYjeGE7IDwvZz4mI3hhOyA8ZGVmcz4mI3hhOyAgPGNsaXBQYXRoIGlkPSJwMzNhODQxNDkyMiI+JiN4YTsgICA8cmVjdCBoZWlnaHQ9IjQ5Mi4yOCIgd2lkdGg9IjgwMS40MyIgeT0iMTAuOCIgeD0iNjYuODkiLz4mI3hhOyAgPC9jbGlwUGF0aD4mI3hhOyA8L2RlZnM+JiN4YTs8L3N2Zz4=;" vertex="1" parent="1">
          <mxGeometry x="400" y="160" width="960.66" height="600" as="geometry" />
        </mxCell>
      </root>
    </mxGraphModel>
  </diagram>
</mxfile>
